<?xml version="1.0" encoding="UTF-8" standalone="no"?>
<!DOCTYPE svg PUBLIC "-//W3C//DTD SVG 20010904//EN"
              "http://www.w3.org/TR/2001/REC-SVG-20010904/DTD/svg10.dtd">

<svg xmlns="http://www.w3.org/2000/svg"
     width="30.2261mm" height="23.114mm"
     viewBox="0 0 119 91">
  <path id="Selection"
        fill="rgb(19, 37, 86)" stroke="rgb(19, 37, 86)" stroke-width="1"
        d="M 15.00,67.00
           C 14.99,59.95 12.13,62.52 11.85,53.00
             11.85,53.00 11.85,24.00 11.85,24.00
             11.85,24.00 11.85,15.00 11.85,15.00
             10.74,2.74 26.25,4.91 34.00,5.00
             34.00,5.00 53.00,6.00 53.00,6.00
             53.00,6.00 78.00,6.83 78.00,6.83
             86.95,7.68 90.65,4.65 97.00,13.00
             97.00,13.00 92.00,13.00 92.00,13.00
             95.38,20.84 100.68,28.59 102.00,37.00
             102.00,37.00 106.00,37.00 106.00,37.00
             106.00,37.00 106.00,45.00 106.00,45.00
             114.46,45.90 121.41,52.65 115.00,57.00
             118.44,61.36 120.66,66.53 117.83,71.97
             113.80,79.74 102.24,79.63 98.17,71.97
             96.79,69.34 97.01,65.89 97.00,63.00
             97.00,63.00 83.00,65.00 83.00,65.00
             83.00,65.00 83.00,68.00 83.00,68.00
             83.00,68.00 37.00,67.00 37.00,67.00
             36.43,76.64 28.74,80.75 22.21,76.15
             18.10,73.24 19.68,70.03 15.00,67.00 Z
           M 51.00,15.00
           C 51.00,15.00 36.00,15.00 36.00,15.00
             36.00,15.00 36.00,42.00 36.00,42.00
             38.79,42.00 44.40,41.46 46.17,44.28
             46.17,44.28 46.17,45.89 46.17,45.89
             46.17,45.89 45.12,50.17 45.12,50.17
             45.12,50.17 45.12,58.00 45.12,58.00
             45.12,58.00 51.00,58.00 51.00,58.00
             51.00,58.00 51.00,15.00 51.00,15.00 Z
           M 82.00,15.00
           C 82.00,15.00 58.00,15.00 58.00,15.00
             58.00,15.00 58.00,27.00 58.00,27.00
             64.26,29.08 63.87,37.26 64.00,43.00
             66.74,43.00 72.49,42.51 74.43,44.60
             75.97,46.26 75.00,55.25 75.00,58.00
             84.61,55.10 82.36,44.42 80.40,42.78
             79.19,41.76 78.31,42.07 77.00,42.00
             77.00,42.00 76.00,41.00 76.00,41.00
             76.00,41.00 81.40,33.91 81.40,33.91
             81.40,33.91 82.00,15.00 82.00,15.00 Z
           M 59.00,36.00
           C 59.00,36.00 58.00,58.00 58.00,58.00
             58.00,58.00 61.00,58.00 61.00,58.00
             61.00,58.00 59.00,36.00 59.00,36.00 Z" />
</svg>
