<?xml version="1.0" encoding="UTF-8" standalone="no"?>
<!DOCTYPE svg PUBLIC "-//W3C//DTD SVG 20010904//EN"
              "http://www.w3.org/TR/2001/REC-SVG-20010904/DTD/svg10.dtd">

<svg xmlns="http://www.w3.org/2000/svg"
     width="2.89667in" height="2.85667in"
     viewBox="0 0 869 857">
  <path id="Selection"
        fill="rgb(175, 255, 138)" stroke="rgb(175, 255, 138)" stroke-width="1"
        d="M 195.00,442.00
           C 195.00,442.00 137.00,442.00 137.00,442.00
             126.12,441.98 122.08,438.45 113.00,433.00
             101.05,425.83 92.97,420.59 82.00,411.80
             75.63,406.69 53.67,385.84 49.54,380.00
             49.54,380.00 45.62,373.00 45.62,373.00
             39.06,362.21 33.93,354.15 29.69,342.00
             19.73,313.45 21.72,282.10 35.27,255.00
             41.07,243.41 49.26,231.48 58.09,222.00
             80.51,197.92 110.30,181.74 142.00,173.63
             149.54,171.70 157.27,170.22 165.00,169.28
             167.79,168.94 172.33,169.29 174.40,167.26
             176.62,165.09 175.97,159.01 176.00,156.00
             176.13,145.24 178.62,130.22 182.00,120.00
             186.36,106.81 191.58,95.84 200.46,85.00
             232.51,45.91 291.22,40.08 337.00,53.72
             354.45,58.92 368.49,65.29 384.00,74.81
             384.00,74.81 398.00,84.37 398.00,84.37
             399.67,85.61 402.93,88.34 404.99,88.47
             408.09,88.66 411.13,84.09 413.09,82.00
             418.98,75.70 425.18,69.72 432.00,64.42
             449.77,50.63 474.25,40.27 497.00,40.00
             541.40,39.48 581.66,62.55 608.79,97.00
             618.88,109.81 627.18,124.01 633.57,139.00
             635.33,143.13 639.23,157.07 642.27,158.99
             644.80,160.56 659.59,158.95 664.00,158.99
             673.70,159.12 686.65,161.46 696.00,164.14
             739.88,176.71 767.10,216.04 776.58,259.00
             780.29,275.84 780.20,288.99 780.00,306.00
             779.82,321.03 773.97,344.96 768.40,359.00
             768.40,359.00 761.25,375.00 761.25,375.00
             760.37,376.74 758.06,380.49 758.58,382.38
             759.32,385.09 765.59,388.33 768.00,389.81
             774.73,393.94 782.31,399.59 788.00,405.04
             808.70,424.83 824.65,451.55 825.00,481.00
             825.53,526.49 806.76,566.34 773.00,596.83
             762.87,605.98 751.84,613.80 740.00,620.57
             736.37,622.65 726.76,626.46 725.32,630.10
             724.30,632.70 726.57,639.01 727.20,642.00
             728.90,650.11 730.80,661.80 730.99,670.00
             731.23,680.66 728.81,695.71 725.86,706.00
             722.72,716.97 719.17,725.33 713.05,735.00
             677.21,791.58 604.55,805.99 544.00,786.00
             544.00,786.00 521.00,778.25 521.00,778.25
             521.00,778.25 511.00,771.86 511.00,771.86
             511.00,771.86 487.00,757.26 487.00,757.26
             467.13,742.90 450.33,724.89 436.14,705.00
             432.07,699.29 419.51,679.00 417.79,673.00
             416.90,669.91 417.00,667.17 417.00,664.00
             417.00,664.00 417.00,559.00 417.00,559.00
             432.38,559.00 447.96,556.28 462.00,549.77
             475.68,543.43 487.40,535.91 497.96,525.00
             540.00,481.56 541.25,417.45 501.71,372.00
             490.91,359.59 478.65,351.35 464.00,344.26
             447.87,336.45 431.77,333.80 414.00,334.00
             376.98,334.44 342.96,356.82 323.00,387.00
             314.86,399.32 309.53,413.46 307.08,428.00
             305.14,439.55 307.59,441.84 299.00,442.00
             299.00,442.00 282.00,442.00 282.00,442.00
             282.00,427.08 285.16,412.94 290.42,399.00
             291.58,395.95 297.50,385.35 296.08,382.93
             294.91,380.93 286.41,376.50 284.00,375.26
             272.30,369.22 262.42,365.46 250.00,361.33
             212.19,348.77 169.55,347.45 131.00,357.13
             115.17,361.10 95.12,368.98 83.00,380.00
             83.00,380.00 101.00,395.34 101.00,395.34
             113.18,404.88 127.23,413.68 141.00,420.74
             152.53,426.65 164.83,431.54 177.00,435.95
             177.00,435.95 195.00,442.00 195.00,442.00 Z
           M 474.00,267.00
           C 474.00,267.00 505.00,234.04 505.00,234.04
             526.15,213.81 549.93,195.71 576.00,182.26
             585.71,177.25 595.67,172.93 606.00,169.34
             609.34,168.18 615.91,167.00 616.50,162.89
             616.90,160.15 613.74,152.74 612.57,150.00
             607.92,139.13 602.17,128.61 595.29,119.00
             574.84,90.42 540.58,64.43 504.00,64.00
             486.43,63.80 475.54,66.85 460.00,74.76
             449.30,80.20 442.37,86.60 434.00,95.00
             431.57,97.44 426.03,102.81 425.07,106.00
             423.67,110.63 429.86,115.71 432.54,119.00
             439.25,127.24 446.95,140.41 451.75,150.00
             463.54,173.55 471.33,199.74 473.83,226.00
             473.83,226.00 475.00,246.00 475.00,246.00
             474.92,252.53 472.75,260.85 474.00,267.00 Z
           M 351.00,260.00
           C 352.39,255.11 351.95,252.91 352.00,248.00
             352.00,248.00 354.42,223.00 354.42,223.00
             358.14,196.73 364.14,172.66 374.00,148.00
             377.74,138.66 381.86,129.81 386.70,121.00
             388.33,118.02 391.77,113.36 390.18,110.01
             388.87,107.26 383.56,103.54 381.00,101.71
             372.39,95.55 365.44,91.46 356.00,86.75
             317.25,67.43 261.78,61.90 227.00,92.29
             211.44,105.88 201.48,130.47 200.95,151.00
             200.90,155.21 199.30,162.30 200.95,165.86
             202.84,170.22 209.93,169.88 214.00,170.61
             225.90,172.76 237.81,176.25 249.00,180.86
             275.84,191.93 299.81,208.34 321.00,228.09
             327.64,234.28 333.69,241.09 339.57,248.00
             343.17,252.23 346.24,257.03 351.00,260.00 Z
           M 381.00,316.00
           C 391.40,312.98 408.28,309.77 419.00,310.01
             423.11,310.11 436.78,312.83 439.49,310.97
             441.82,309.38 442.95,303.68 443.63,301.00
             445.81,292.36 447.95,283.88 448.95,275.00
             448.95,275.00 451.00,251.00 451.00,251.00
             451.04,222.90 446.42,193.56 434.25,168.00
             429.33,157.65 425.76,150.64 419.33,141.00
             416.10,136.15 414.85,132.76 409.00,131.00
             391.77,163.61 382.22,194.39 377.85,231.00
             377.85,231.00 376.00,253.00 376.00,253.00
             376.00,253.00 376.00,281.00 376.00,281.00
             376.09,288.29 378.17,309.91 381.00,316.00 Z
           M 578.11,359.00
           C 590.00,355.97 602.71,355.50 615.00,354.96
             615.00,354.96 628.00,354.00 628.00,354.00
             628.00,354.00 646.00,355.00 646.00,355.00
             646.00,355.00 655.00,355.00 655.00,355.00
             666.31,355.86 677.88,357.58 689.00,359.80
             700.52,362.10 711.86,364.92 723.00,368.67
             726.31,369.78 732.68,373.08 735.79,371.22
             738.95,369.33 743.31,358.69 744.80,355.00
             750.83,340.05 755.97,320.15 756.00,304.00
             756.03,284.24 756.17,273.54 750.57,254.00
             742.08,224.37 720.84,197.40 691.00,187.36
             684.51,185.17 673.83,183.08 667.00,183.00
             667.00,183.00 656.00,183.00 656.00,183.00
             653.52,183.00 649.46,182.68 647.61,184.60
             645.61,186.69 646.73,190.39 646.91,193.00
             647.29,198.64 648.36,205.55 647.72,211.00
             647.72,211.00 646.72,223.00 646.72,223.00
             643.66,248.43 636.18,273.32 624.22,296.00
             617.09,309.52 604.45,328.03 593.96,339.00
             590.85,342.25 579.41,352.77 578.11,356.00
             577.58,357.76 578.01,358.08 578.11,359.00 Z
           M 622.00,189.00
           C 575.21,202.67 531.82,235.99 500.92,273.00
             490.96,284.94 475.08,305.97 469.00,320.00
             469.00,320.00 479.00,324.89 479.00,324.89
             489.80,330.58 501.27,338.50 510.00,347.01
             513.16,350.10 523.28,362.26 527.00,362.27
             529.89,362.28 536.40,357.40 539.00,355.67
             549.41,348.72 559.14,340.84 568.00,332.00
             596.29,303.75 613.28,273.22 621.00,234.00
             623.56,220.97 625.65,201.81 622.00,189.00 Z
           M 251.00,335.00
           C 251.00,335.00 230.72,308.00 230.72,308.00
             215.07,285.61 198.98,257.83 190.00,232.00
             186.56,222.11 183.20,212.26 181.00,202.00
             180.29,198.69 179.80,193.28 175.87,192.35
             174.43,192.01 164.00,193.26 162.00,193.61
             150.93,195.56 140.44,198.22 130.00,202.40
             81.09,221.96 37.24,267.69 49.21,324.00
             51.60,335.24 58.93,353.86 68.00,361.00
             94.22,340.76 128.24,330.31 161.00,327.91
             161.00,327.91 173.00,327.00 173.00,327.00
             173.00,327.00 190.00,327.00 190.00,327.00
             200.88,327.02 219.10,329.55 230.00,331.61
             236.37,332.81 244.81,336.24 251.00,335.00 Z
           M 204.00,194.00
           C 204.55,205.88 213.64,228.79 218.70,240.00
             232.83,271.34 252.14,300.21 274.85,326.00
             274.85,326.00 298.00,349.99 298.00,349.99
             300.06,352.00 307.66,359.04 309.99,359.84
             313.95,361.19 318.43,354.60 321.00,352.00
             328.51,344.41 334.13,339.62 343.00,333.67
             345.77,331.81 354.95,326.75 356.30,324.67
             358.37,321.48 354.69,315.11 353.22,312.00
             347.19,299.24 341.36,289.47 333.14,278.00
             311.13,247.29 281.60,221.31 247.00,205.70
             233.49,199.60 219.02,194.04 204.00,194.00 Z
           M 719.00,394.00
           C 709.96,389.37 697.03,386.41 687.00,384.40
             660.00,379.00 643.19,378.69 616.00,379.00
             601.71,379.17 576.21,383.39 562.00,386.65
             558.72,387.40 546.65,390.00 545.06,392.51
             543.38,395.19 547.62,404.73 548.58,408.00
             552.89,422.74 554.14,432.70 554.00,448.00
             553.97,450.60 553.10,455.29 555.40,456.98
             556.97,458.13 560.97,458.04 563.00,458.28
             570.02,459.13 576.93,459.08 584.00,459.00
             584.00,459.00 594.00,458.09 594.00,458.09
             628.99,455.53 662.90,442.27 691.00,421.37
             699.39,415.13 715.27,403.51 719.00,394.00 Z
           M 600.00,482.00
           C 603.97,486.97 609.70,489.67 615.00,493.05
             615.00,493.05 636.00,508.21 636.00,508.21
             658.11,525.64 678.08,545.91 694.28,569.00
             699.08,575.84 706.94,588.59 710.74,596.00
             712.28,598.99 714.08,605.20 718.05,605.05
             720.70,604.95 728.48,600.32 731.00,598.80
             743.50,591.25 750.70,585.31 761.00,575.00
             791.74,544.25 812.70,496.73 794.57,454.00
             790.68,444.82 785.81,437.60 779.41,430.00
             773.03,422.43 764.35,415.37 756.00,410.05
             753.76,408.63 748.40,405.23 746.01,404.70
             741.03,403.61 738.13,409.66 735.38,413.00
             728.63,421.24 717.47,430.50 709.00,437.20
             690.37,451.91 664.75,465.60 642.00,472.57
             642.00,472.57 619.00,478.55 619.00,478.55
             619.00,478.55 600.00,482.00 600.00,482.00 Z
           M 693.00,614.00
           C 673.96,569.81 632.75,530.85 592.00,506.40
             592.00,506.40 561.00,490.42 561.00,490.42
             558.43,489.31 551.84,486.00 549.27,486.78
             546.46,487.64 544.85,494.34 543.80,497.00
             540.01,506.55 534.97,515.57 529.12,524.00
             523.66,531.85 518.78,537.29 512.00,544.00
             510.07,545.90 504.29,550.55 504.11,553.09
             503.86,556.43 509.76,561.74 512.00,564.00
             522.95,575.00 527.04,578.98 540.00,587.81
             566.94,606.16 607.29,618.95 640.00,619.00
             640.00,619.00 665.00,619.00 665.00,619.00
             672.82,618.96 685.86,617.03 693.00,614.00 Z
           M 510.00,743.00
           C 512.91,736.77 514.91,718.23 515.00,711.00
             515.47,670.65 512.56,646.56 499.67,608.00
             496.37,598.15 492.27,588.35 487.74,579.00
             486.59,576.63 483.66,570.07 481.61,568.81
             478.52,566.91 468.44,572.44 465.00,573.80
             447.31,580.80 437.88,580.64 420.00,583.00
             420.00,629.54 438.73,672.99 468.87,708.00
             478.18,718.82 497.11,737.16 510.00,743.00 Z
           M 525.00,608.00
           C 525.00,608.00 532.12,635.00 532.12,635.00
             535.87,650.79 539.97,675.96 540.00,692.00
             540.02,707.40 539.80,716.59 537.72,732.00
             537.72,732.00 534.06,752.00 534.06,752.00
             533.23,759.46 543.47,761.15 549.00,763.00
             565.13,768.38 581.99,771.20 599.00,771.00
             647.27,770.43 694.41,741.14 704.93,692.00
             707.65,678.47 707.32,665.57 704.93,652.00
             704.53,648.70 703.54,639.83 700.57,638.11
             698.38,636.84 691.62,638.85 689.00,639.42
             680.00,641.41 670.22,642.99 661.00,643.00
             661.00,643.00 643.00,643.00 643.00,643.00
             623.31,642.97 592.55,637.25 574.00,630.57
             564.42,627.11 552.91,622.51 544.00,617.69
             538.21,614.56 531.19,609.26 525.00,608.00 Z" />
</svg>
