<?xml version="1.0" encoding="UTF-8" standalone="no"?>
<!DOCTYPE svg PUBLIC "-//W3C//DTD SVG 20010904//EN"
              "http://www.w3.org/TR/2001/REC-SVG-20010904/DTD/svg10.dtd">

<svg xmlns="http://www.w3.org/2000/svg"
     width="6.1in" height="7.03333in"
     viewBox="0 0 549 633">
  <path id="Selection"
        fill="rgb(96, 118, 178)" stroke="rgb(96, 118, 178)" stroke-width="1"
        d="M 200.00,60.00
           C 203.45,53.31 212.42,49.00 219.00,45.76
             240.70,35.06 267.88,34.34 290.00,44.31
             297.13,47.52 308.36,52.95 312.00,60.00
             312.00,60.00 200.00,60.00 200.00,60.00 Z
           M 177.00,68.00
           C 177.00,68.00 335.00,68.00 335.00,68.00
             335.00,68.00 335.00,81.00 335.00,81.00
             335.00,81.00 177.00,81.00 177.00,81.00
             177.00,81.00 177.00,68.00 177.00,68.00 Z
           M 105.00,87.00
           C 105.00,87.00 407.00,87.00 407.00,87.00
             407.00,87.00 407.00,143.00 407.00,143.00
             406.98,151.64 406.64,151.98 398.00,152.00
             398.00,152.00 173.00,152.00 173.00,152.00
             173.00,152.00 114.00,152.00 114.00,152.00
             105.36,151.98 105.02,151.64 105.00,143.00
             105.00,143.00 105.00,87.00 105.00,87.00 Z
           M 291.00,99.00
           C 291.00,99.00 221.00,99.00 221.00,99.00
             221.00,99.00 221.00,102.00 221.00,102.00
             221.00,102.00 190.00,102.00 190.00,102.00
             190.00,102.00 190.00,138.00 190.00,138.00
             190.00,138.00 212.00,138.00 212.00,138.00
             216.67,138.03 218.54,137.64 221.00,142.00
             221.00,142.00 291.00,142.00 291.00,142.00
             293.25,138.01 294.58,138.09 299.00,138.00
             299.00,138.00 321.00,138.00 321.00,138.00
             321.00,138.00 321.00,102.00 321.00,102.00
             321.00,102.00 291.00,102.00 291.00,102.00
             291.00,102.00 291.00,99.00 291.00,99.00 Z
           M 163.00,104.39
           C 141.66,111.08 150.85,141.27 171.00,136.47
             182.82,133.65 187.67,118.37 179.47,109.21
             175.04,104.27 169.20,103.55 163.00,104.39 Z
           M 341.00,104.34
           C 319.51,110.14 328.14,140.52 348.00,136.52
             359.53,134.20 365.37,119.72 358.01,110.18
             353.55,104.41 347.78,103.56 341.00,104.34 Z
           M 77.00,156.00
           C 77.00,156.00 435.00,156.00 435.00,156.00
             435.00,156.00 435.00,187.00 435.00,187.00
             435.00,187.00 77.00,187.00 77.00,187.00
             77.00,187.00 77.00,156.00 77.00,156.00 Z
           M 66.00,197.00
           C 66.00,197.00 446.00,197.00 446.00,197.00
             446.00,197.00 446.00,228.00 446.00,228.00
             446.00,228.00 66.00,228.00 66.00,228.00
             66.00,228.00 66.00,197.00 66.00,197.00 Z
           M 54.00,232.00
           C 54.00,232.00 458.00,232.00 458.00,232.00
             458.00,232.00 454.00,242.00 454.00,242.00
             454.00,242.00 150.00,242.00 150.00,242.00
             150.00,242.00 81.00,242.00 81.00,242.00
             81.00,242.00 65.00,242.00 65.00,242.00
             65.00,242.00 58.58,240.98 58.58,240.98
             58.58,240.98 54.00,232.00 54.00,232.00 Z
           M 56.00,256.00
           C 56.00,256.00 456.00,256.00 456.00,256.00
             456.00,256.00 452.35,264.01 452.35,264.01
             452.35,264.01 434.00,265.00 434.00,265.00
             434.00,265.00 371.00,265.00 371.00,265.00
             371.00,265.00 131.00,265.00 131.00,265.00
             131.00,265.00 77.00,265.00 77.00,265.00
             77.00,265.00 59.65,264.01 59.65,264.01
             59.65,264.01 56.00,256.00 56.00,256.00 Z
           M 47.00,269.00
           C 47.00,269.00 162.00,269.00 162.00,269.00
             162.00,269.00 162.00,346.00 162.00,346.00
             162.00,346.00 168.00,346.00 168.00,346.00
             168.00,346.00 168.00,352.00 168.00,352.00
             168.00,352.00 150.29,353.02 150.29,353.02
             150.29,353.02 148.00,356.00 148.00,356.00
             148.00,356.00 166.00,356.00 166.00,356.00
             166.00,356.00 162.56,363.00 162.56,363.00
             162.56,363.00 162.00,383.00 162.00,383.00
             162.00,383.00 162.00,413.00 162.00,413.00
             162.00,413.00 168.00,413.00 168.00,413.00
             168.00,413.00 162.00,428.00 162.00,428.00
             162.00,428.00 166.00,428.00 166.00,428.00
             166.00,428.00 166.00,434.00 166.00,434.00
             166.00,434.00 162.00,434.00 162.00,434.00
             162.00,434.00 162.00,611.00 162.00,611.00
             162.00,611.00 143.00,611.00 143.00,611.00
             143.00,611.00 143.00,568.00 143.00,568.00
             143.00,568.00 67.00,568.00 67.00,568.00
             67.00,568.00 67.00,611.00 67.00,611.00
             67.00,611.00 47.00,611.00 47.00,611.00
             47.00,611.00 47.00,434.00 47.00,434.00
             47.00,434.00 42.00,434.00 42.00,434.00
             42.37,429.56 42.48,428.79 47.00,428.00
             47.00,428.00 41.00,413.00 41.00,413.00
             41.00,413.00 47.00,413.00 47.00,413.00
             47.00,413.00 47.00,369.00 47.00,369.00
             46.95,361.52 45.77,362.33 43.00,356.00
             43.00,356.00 61.00,356.00 61.00,356.00
             61.00,356.00 60.00,352.00 60.00,352.00
             60.00,352.00 40.00,352.00 40.00,352.00
             40.00,352.00 40.00,346.00 40.00,346.00
             40.00,346.00 47.00,346.00 47.00,346.00
             47.00,346.00 47.00,269.00 47.00,269.00 Z
           M 349.00,346.00
           C 349.00,346.00 349.00,288.00 349.00,288.00
             349.00,284.52 348.08,272.01 350.60,270.02
             352.19,268.77 356.01,269.00 358.00,269.00
             358.00,269.00 465.00,269.00 465.00,269.00
             465.00,269.00 465.00,346.00 465.00,346.00
             470.47,346.19 471.53,346.33 472.00,352.00
             472.00,352.00 453.41,353.02 453.41,353.02
             453.41,353.02 451.00,356.00 451.00,356.00
             451.00,356.00 469.00,356.00 469.00,356.00
             466.63,361.41 465.12,361.64 465.00,368.00
             465.00,368.00 465.00,413.00 465.00,413.00
             465.00,413.00 471.00,413.00 471.00,413.00
             471.00,413.00 465.00,428.00 465.00,428.00
             469.52,428.79 469.63,429.56 470.00,434.00
             470.00,434.00 465.00,434.00 465.00,434.00
             465.00,434.00 465.00,611.00 465.00,611.00
             465.00,611.00 445.00,611.00 445.00,611.00
             445.00,611.00 445.00,568.00 445.00,568.00
             445.00,568.00 369.00,568.00 369.00,568.00
             369.00,568.00 369.00,611.00 369.00,611.00
             365.42,611.00 352.03,611.93 350.02,609.40
             348.77,607.81 349.00,603.99 349.00,602.00
             349.00,602.00 349.00,434.00 349.00,434.00
             349.00,434.00 346.00,434.00 346.00,434.00
             346.00,434.00 346.00,428.00 346.00,428.00
             346.00,428.00 349.00,428.00 349.00,428.00
             349.00,428.00 344.00,413.00 344.00,413.00
             344.00,413.00 349.00,413.00 349.00,413.00
             349.00,413.00 349.00,380.00 349.00,380.00
             349.00,369.92 350.30,365.43 346.00,356.00
             346.00,356.00 364.00,356.00 364.00,356.00
             364.00,356.00 361.71,353.02 361.71,353.02
             361.71,353.02 344.00,352.00 344.00,352.00
             344.00,352.00 344.00,346.00 344.00,346.00
             344.00,346.00 349.00,346.00 349.00,346.00 Z
           M 102.00,276.34
           C 96.36,277.35 92.23,278.94 88.99,284.02
             82.02,294.95 88.55,310.26 102.00,310.96
             123.31,312.07 127.25,285.29 111.00,277.97
             107.85,276.55 105.39,276.25 102.00,276.34 Z
           M 407.00,276.34
           C 401.03,277.41 396.27,279.48 393.09,285.00
             386.71,296.08 394.23,310.30 407.00,310.96
             431.71,312.24 432.24,275.69 407.00,276.34 Z
           M 171.00,277.00
           C 171.00,277.00 250.00,277.00 250.00,277.00
             250.00,277.00 253.00,294.00 253.00,294.00
             264.49,293.06 257.03,284.66 262.90,278.60
             264.82,276.61 268.44,277.01 271.00,277.00
             271.00,277.00 341.00,277.00 341.00,277.00
             341.00,277.00 341.00,347.00 341.00,347.00
             341.00,347.00 337.00,347.00 337.00,347.00
             337.00,347.00 341.00,368.00 341.00,368.00
             341.00,368.00 341.00,414.00 341.00,414.00
             341.00,414.00 336.00,414.00 336.00,414.00
             339.59,420.80 340.90,421.11 341.00,429.00
             341.00,429.00 338.00,429.00 338.00,429.00
             338.00,429.00 338.00,433.00 338.00,433.00
             338.00,433.00 341.00,433.00 341.00,433.00
             341.00,433.00 341.00,611.00 341.00,611.00
             341.00,611.00 325.00,611.00 325.00,611.00
             325.00,611.00 325.00,370.00 325.00,370.00
             324.99,364.48 321.83,350.45 320.00,345.00
             312.81,323.72 296.20,308.22 274.00,303.81
             267.58,302.53 253.15,302.92 246.00,303.00
             238.20,303.09 228.88,305.66 222.00,309.32
             207.65,316.96 196.14,330.32 191.44,346.00
             191.44,346.00 189.49,356.17 189.49,356.17
             188.11,362.83 187.02,359.32 187.00,370.00
             187.00,370.00 187.00,611.00 187.00,611.00
             187.00,611.00 171.00,611.00 171.00,611.00
             171.00,611.00 171.00,433.00 171.00,433.00
             171.00,433.00 174.00,433.00 174.00,433.00
             174.00,433.00 174.00,429.00 174.00,429.00
             174.00,429.00 171.00,429.00 171.00,429.00
             171.10,421.11 172.41,420.80 176.00,414.00
             176.00,414.00 171.00,414.00 171.00,414.00
             171.00,414.00 171.00,368.00 171.00,368.00
             171.00,368.00 175.00,347.00 175.00,347.00
             175.00,347.00 171.00,347.00 171.00,347.00
             171.00,347.00 171.00,277.00 171.00,277.00 Z
           M 101.00,280.55
           C 121.51,278.09 122.47,308.65 102.00,306.89
             88.12,305.70 84.60,285.70 101.00,280.55 Z
           M 406.00,280.54
           C 426.32,278.12 427.19,308.63 407.00,306.89
             397.88,306.11 392.30,296.39 396.09,288.04
             398.08,283.64 401.64,281.88 406.00,280.54 Z
           M 249.00,286.00
           C 210.02,286.00 178.12,314.08 178.00,354.00
             178.00,354.00 186.00,354.00 186.00,354.00
             188.62,341.00 193.45,330.03 202.44,320.09
             219.75,300.95 238.92,298.72 263.00,299.00
             274.80,299.14 288.26,303.47 298.00,310.09
             313.40,320.56 322.38,336.03 326.00,354.00
             326.00,354.00 334.00,354.00 334.00,354.00
             333.92,328.90 321.54,308.28 300.00,295.45
             292.59,291.04 283.48,288.11 275.00,286.80
             272.54,286.18 266.78,285.34 264.74,286.80
             262.52,288.78 263.00,294.35 263.00,297.00
             251.19,297.00 249.04,298.34 249.00,286.00 Z
           M 148.00,316.00
           C 148.00,316.00 60.00,316.00 60.00,316.00
             60.00,316.00 62.41,318.98 62.41,318.98
             62.41,318.98 78.00,320.00 78.00,320.00
             78.00,320.00 128.00,320.00 128.00,320.00
             128.00,320.00 146.28,319.01 146.28,319.01
             146.28,319.01 148.00,316.00 148.00,316.00 Z
           M 451.00,316.00
           C 451.00,316.00 364.00,316.00 364.00,316.00
             364.00,316.00 365.72,319.01 365.72,319.01
             365.72,319.01 381.00,320.00 381.00,320.00
             381.00,320.00 432.00,320.00 432.00,320.00
             432.00,320.00 449.41,318.98 449.41,318.98
             449.41,318.98 451.00,316.00 451.00,316.00 Z
           M 143.00,326.00
           C 143.00,326.00 67.00,326.00 67.00,326.00
             67.00,326.00 67.00,346.00 67.00,346.00
             67.00,346.00 143.00,346.00 143.00,346.00
             143.00,346.00 143.00,326.00 143.00,326.00 Z
           M 445.00,326.00
           C 445.00,326.00 369.00,326.00 369.00,326.00
             369.00,326.00 369.00,346.00 369.00,346.00
             369.00,346.00 445.00,346.00 445.00,346.00
             445.00,346.00 445.00,326.00 445.00,326.00 Z
           M 78.00,329.00
           C 78.00,329.00 131.00,329.00 131.00,329.00
             131.00,329.00 131.00,341.00 131.00,341.00
             131.00,341.00 78.00,341.00 78.00,341.00
             78.00,341.00 78.00,329.00 78.00,329.00 Z
           M 381.00,329.00
           C 381.00,329.00 427.00,329.00 427.00,329.00
             434.88,329.15 434.00,331.21 434.00,341.00
             434.00,341.00 381.00,341.00 381.00,341.00
             381.00,341.00 381.00,329.00 381.00,329.00 Z
           M 143.00,362.00
           C 143.00,362.00 67.00,362.00 67.00,362.00
             67.00,362.00 67.00,413.00 67.00,413.00
             67.00,413.00 143.00,413.00 143.00,413.00
             143.00,413.00 143.00,362.00 143.00,362.00 Z
           M 445.00,362.00
           C 445.00,362.00 369.00,362.00 369.00,362.00
             369.00,362.00 369.00,413.00 369.00,413.00
             369.00,413.00 445.00,413.00 445.00,413.00
             445.00,413.00 445.00,362.00 445.00,362.00 Z
           M 78.00,372.00
           C 78.00,372.00 131.00,372.00 131.00,372.00
             131.00,372.00 131.00,400.00 131.00,400.00
             131.00,400.00 78.00,400.00 78.00,400.00
             78.00,400.00 78.00,372.00 78.00,372.00 Z
           M 381.00,372.00
           C 381.00,372.00 434.00,372.00 434.00,372.00
             434.00,372.00 434.00,400.00 434.00,400.00
             434.00,400.00 381.00,400.00 381.00,400.00
             381.00,400.00 381.00,372.00 381.00,372.00 Z
           M 143.00,434.00
           C 143.00,434.00 67.00,434.00 67.00,434.00
             67.00,434.00 67.00,554.00 67.00,554.00
             67.00,554.00 143.00,554.00 143.00,554.00
             143.00,554.00 143.00,434.00 143.00,434.00 Z
           M 445.00,434.00
           C 445.00,434.00 369.00,434.00 369.00,434.00
             369.00,434.00 369.00,554.00 369.00,554.00
             369.00,554.00 445.00,554.00 445.00,554.00
             445.00,554.00 445.00,434.00 445.00,434.00 Z" />
</svg>
