<?xml version="1.0" encoding="UTF-8" standalone="no"?>
<!DOCTYPE svg PUBLIC "-//W3C//DTD SVG 20010904//EN"
              "http://www.w3.org/TR/2001/REC-SVG-20010904/DTD/svg10.dtd">

<svg xmlns="http://www.w3.org/2000/svg"
     width="1.77778in" height="4.33333in"
     viewBox="0 0 160 390">
  <path id="Selection"
        fill="rgb(19, 37, 86)" stroke="rgb(19, 37, 86)" stroke-width="1"
        d="M 48.00,56.00
           C 48.38,59.74 46.22,61.23 44.00,64.00
             44.00,64.00 61.00,56.00 61.00,56.00
             57.35,63.73 48.40,70.40 40.00,72.00
             40.00,72.00 37.13,92.00 37.13,92.00
             37.13,92.00 33.00,117.00 33.00,117.00
             33.00,117.00 66.00,116.00 66.00,116.00
             66.00,116.00 79.00,115.00 79.00,115.00
             78.78,112.23 78.35,105.67 76.40,103.73
             74.91,102.25 69.55,101.11 67.00,99.86
             59.27,96.07 56.68,90.29 57.04,82.00
             57.47,72.03 64.58,58.68 75.00,56.39
             87.88,53.56 103.83,69.71 103.82,82.00
             103.81,88.57 99.48,92.96 96.00,98.00
             101.44,99.34 106.22,99.12 110.44,103.53
             114.19,107.43 113.33,112.08 118.44,116.49
             123.48,120.84 129.74,119.16 131.00,130.00
             139.26,128.52 143.46,127.76 148.00,136.00
             148.00,136.00 154.00,125.00 154.00,125.00
             155.46,127.90 157.66,131.54 156.39,134.89
             154.48,139.93 141.24,139.86 137.00,138.26
             130.76,135.91 133.04,133.00 124.00,133.00
             124.00,133.00 131.22,154.00 131.22,154.00
             131.91,156.55 132.50,160.19 130.40,162.26
             125.71,166.90 108.76,162.55 108.67,171.04
             108.67,171.04 108.67,176.00 108.67,176.00
             109.76,187.89 111.83,192.82 114.63,204.00
             117.99,217.46 121.98,238.31 122.00,252.00
             122.03,268.78 122.57,279.42 117.56,296.00
             117.56,296.00 109.93,314.00 109.93,314.00
             107.95,321.21 110.08,329.69 103.00,345.00
             114.06,347.95 108.26,354.81 105.46,362.00
             102.29,370.13 103.04,377.65 91.00,375.00
             94.25,367.93 97.04,368.51 95.00,360.00
             95.00,360.00 90.00,365.00 90.00,365.00
             90.00,365.00 86.00,351.00 86.00,351.00
             74.17,362.93 74.02,367.75 67.00,360.00
             66.31,362.88 65.65,365.06 67.00,367.91
             68.05,370.11 71.08,372.37 69.83,374.44
             68.06,377.38 62.34,374.72 60.72,372.72
             58.96,370.54 58.19,365.86 57.07,363.00
             55.23,358.25 49.13,348.05 57.07,345.57
             58.65,345.07 60.36,345.08 61.90,345.00
             59.21,333.56 59.48,323.44 61.90,312.00
             62.72,307.48 66.43,292.51 66.19,289.00
             66.19,289.00 59.00,265.00 59.00,265.00
             51.80,243.41 44.92,225.96 52.02,203.00
             57.20,186.28 63.21,185.46 71.00,172.00
             65.11,171.38 60.37,168.97 56.00,165.00
             56.00,165.00 66.00,166.00 66.00,166.00
             66.00,166.00 50.00,154.00 50.00,154.00
             59.89,154.48 67.35,159.09 75.00,165.00
             75.08,159.30 69.84,149.38 67.25,144.00
             66.16,141.74 64.90,138.38 62.73,137.02
             60.79,135.81 52.57,135.12 50.00,135.00
             50.00,135.00 50.00,131.00 50.00,131.00
             50.00,131.00 29.00,129.17 29.00,129.17
             25.81,128.85 21.93,129.27 19.60,126.57
             16.22,122.65 21.29,110.75 22.72,106.00
             22.72,106.00 30.14,81.00 30.14,81.00
             31.47,76.37 33.93,67.79 36.80,64.18
             39.42,60.88 44.37,58.19 48.00,56.00 Z
           M 84.00,90.00
           C 84.00,90.00 78.00,92.00 78.00,92.00
             78.00,92.00 84.00,90.00 84.00,90.00 Z
           M 112.00,141.00
           C 112.00,141.00 109.00,141.00 109.00,141.00
             109.00,141.00 108.00,156.00 108.00,156.00
             108.00,156.00 117.00,154.00 117.00,154.00
             117.00,154.00 112.00,141.00 112.00,141.00 Z" />
</svg>
