<?xml version="1.0" encoding="UTF-8" standalone="no"?>
<!DOCTYPE svg PUBLIC "-//W3C//DTD SVG 20010904//EN"
              "http://www.w3.org/TR/2001/REC-SVG-20010904/DTD/svg10.dtd">

<svg xmlns="http://www.w3.org/2000/svg"
     width="7.1in" height="4.92222in"
     viewBox="0 0 639 443">
  <path id="Selection"
        fill="rgb(96, 118, 178)" stroke="rgb(96, 118, 178)s" stroke-width="1"
        d="M 197.00,94.00
           C 197.00,94.00 197.00,69.00 197.00,69.00
             196.93,58.61 192.28,60.18 193.64,55.16
             193.64,55.16 196.79,48.96 196.79,48.96
             199.74,40.41 206.80,25.23 215.00,21.00
             222.65,31.81 226.56,36.27 231.12,48.96
             231.12,48.96 234.43,56.07 234.43,56.07
             234.85,59.67 231.84,60.55 231.15,65.04
             231.15,65.04 231.15,85.00 231.15,85.00
             231.00,86.70 230.94,89.31 231.15,90.91
             231.90,93.68 233.95,95.65 232.84,97.44
             231.65,99.36 226.99,99.00 225.00,99.00
             225.00,99.00 202.00,99.00 202.00,99.00
             196.95,98.97 194.96,99.45 194.00,94.00
             194.00,94.00 197.00,94.00 197.00,94.00 Z
           M 407.00,21.00
           C 415.20,25.23 422.26,40.41 425.21,48.96
             426.59,52.99 429.31,54.38 428.36,57.93
             427.81,60.00 426.00,61.31 425.15,64.09
             425.15,64.09 425.15,94.00 425.15,94.00
             425.15,94.00 428.00,94.00 428.00,94.00
             427.13,98.93 425.80,98.91 421.00,99.00
             421.00,99.00 397.00,99.00 397.00,99.00
             395.01,99.00 390.35,99.36 389.16,97.44
             387.98,95.53 390.33,93.66 390.93,89.96
             390.93,89.96 390.93,69.00 390.93,69.00
             390.93,58.87 387.02,60.78 387.57,56.07
             387.57,56.07 390.88,48.96 390.88,48.96
             395.44,36.27 399.35,31.81 407.00,21.00 Z
           M 203.00,64.00
           C 199.72,68.46 201.00,76.56 201.00,82.00
             201.00,82.00 204.00,82.00 204.00,82.00
             204.00,82.00 203.00,64.00 203.00,64.00 Z
           M 216.93,82.00
           C 216.93,82.00 216.93,69.02 216.93,69.02
             216.93,69.02 214.00,65.20 214.00,65.20
             214.00,65.20 211.07,69.02 211.07,69.02
             211.07,69.02 211.07,82.00 211.07,82.00
             211.07,82.00 216.93,82.00 216.93,82.00 Z
           M 226.00,64.00
           C 221.64,68.74 223.00,75.96 223.00,82.00
             223.00,82.00 227.00,82.00 227.00,82.00
             227.00,82.00 226.00,64.00 226.00,64.00 Z
           M 397.00,64.00
           C 393.72,68.46 395.00,76.56 395.00,82.00
             395.00,82.00 399.00,82.00 399.00,82.00
             399.00,75.36 399.85,70.15 397.00,64.00 Z
           M 410.93,82.00
           C 410.93,82.00 410.93,69.02 410.93,69.02
             410.93,69.02 408.00,65.20 408.00,65.20
             408.00,65.20 405.07,69.02 405.07,69.02
             405.07,69.02 405.07,82.00 405.07,82.00
             405.07,82.00 410.93,82.00 410.93,82.00 Z
           M 420.00,64.00
           C 416.72,68.46 418.00,76.56 418.00,82.00
             418.00,82.00 421.00,82.00 421.00,82.00
             421.00,82.00 420.00,64.00 420.00,64.00 Z
           M 238.00,85.00
           C 238.00,85.00 384.00,85.00 384.00,85.00
             384.00,89.04 385.21,93.25 381.00,95.00
             384.04,99.62 383.94,99.47 384.00,105.00
             384.00,105.00 380.00,105.00 380.00,105.00
             380.00,105.00 383.79,113.00 383.79,113.00
             383.79,113.00 383.79,141.00 383.79,141.00
             383.79,141.00 381.00,141.00 381.00,141.00
             381.00,141.00 381.00,154.00 381.00,154.00
             381.00,154.00 388.00,154.00 388.00,154.00
             388.00,154.00 388.00,141.00 388.00,141.00
             388.00,141.00 391.00,141.00 391.00,141.00
             391.00,141.00 390.49,114.00 390.49,114.00
             390.49,114.00 385.00,104.00 385.00,104.00
             385.00,104.00 431.00,104.00 431.00,104.00
             431.00,104.00 425.21,115.00 425.21,115.00
             425.21,115.00 425.21,141.00 425.21,141.00
             425.21,141.00 428.00,141.00 428.00,141.00
             428.00,141.00 428.00,154.00 428.00,154.00
             430.42,154.03 438.05,154.10 435.83,158.71
             434.62,161.22 431.29,160.43 429.08,163.31
             427.90,164.85 426.66,169.02 426.00,171.00
             426.00,171.00 430.00,170.00 430.00,170.00
             430.00,170.00 430.00,203.00 430.00,203.00
             430.00,203.00 435.00,203.00 435.00,203.00
             435.00,203.00 435.00,176.00 435.00,176.00
             435.02,171.82 435.95,163.63 439.65,160.99
             441.39,159.75 444.90,160.00 447.00,160.00
             447.00,160.00 582.00,160.00 582.00,160.00
             582.00,160.00 582.00,168.00 582.00,168.00
             582.00,168.00 590.00,168.00 590.00,168.00
             590.00,168.00 585.19,180.00 585.19,180.00
             585.19,180.00 585.19,207.00 585.19,207.00
             585.19,207.00 456.00,207.00 456.00,207.00
             456.00,207.00 441.00,204.00 441.00,204.00
             443.05,213.75 435.44,205.73 432.00,215.00
             437.30,210.74 440.36,212.00 447.00,212.00
             447.00,212.00 473.00,212.00 473.00,212.00
             473.00,212.00 582.00,212.00 582.00,212.00
             582.00,212.00 582.00,215.00 582.00,215.00
             582.00,215.00 600.00,215.00 600.00,215.00
             600.00,215.00 582.58,244.17 582.58,244.17
             582.58,244.17 582.00,251.00 582.00,251.00
             582.00,251.00 582.00,393.00 582.00,393.00
             582.00,393.00 536.00,393.00 536.00,393.00
             536.00,393.00 536.00,242.00 536.00,242.00
             536.00,242.00 533.00,242.00 533.00,242.00
             533.00,242.00 533.00,223.00 533.00,223.00
             533.00,223.00 529.00,223.00 529.00,223.00
             529.00,223.00 529.00,242.00 529.00,242.00
             529.00,242.00 532.00,242.00 532.00,242.00
             532.00,242.00 532.00,248.00 532.00,248.00
             532.00,248.00 529.00,248.00 529.00,248.00
             529.00,248.00 529.00,253.00 529.00,253.00
             529.00,253.00 526.00,253.00 526.00,253.00
             526.00,253.00 526.00,393.00 526.00,393.00
             526.00,393.00 448.00,393.00 448.00,393.00
             448.00,393.00 448.00,253.00 448.00,253.00
             448.00,253.00 444.00,253.00 444.00,253.00
             444.00,253.00 442.00,242.00 442.00,242.00
             442.00,242.00 440.00,242.00 440.00,242.00
             440.00,242.00 440.00,385.00 440.00,385.00
             440.00,385.00 446.00,388.00 446.00,388.00
             446.00,388.00 446.00,393.00 446.00,393.00
             446.00,393.00 364.00,393.00 364.00,393.00
             364.00,393.00 368.00,376.00 368.00,376.00
             368.00,376.00 368.00,314.00 368.00,314.00
             364.17,312.66 364.33,311.91 364.00,308.00
             358.69,307.12 358.18,305.72 356.00,301.00
             356.00,301.00 360.00,300.00 360.00,300.00
             359.01,278.35 349.22,260.02 331.00,248.00
             326.27,244.88 316.68,239.93 311.00,239.93
             305.32,239.93 295.73,244.88 291.00,248.00
             272.78,260.02 262.99,278.35 262.00,300.00
             262.00,300.00 266.00,301.00 266.00,301.00
             263.82,305.72 263.31,307.12 258.00,308.00
             257.67,311.91 257.83,312.66 254.00,314.00
             254.00,314.00 254.00,376.00 254.00,376.00
             254.00,376.00 258.00,393.00 258.00,393.00
             258.00,393.00 176.00,393.00 176.00,393.00
             176.00,393.00 176.00,388.00 176.00,388.00
             180.51,385.49 180.91,382.92 181.00,378.00
             181.00,378.00 181.00,353.00 181.00,353.00
             181.00,353.00 181.00,279.00 181.00,279.00
             181.00,270.72 181.89,248.67 180.00,242.00
             180.00,242.00 178.00,253.00 178.00,253.00
             178.00,253.00 174.00,253.00 174.00,253.00
             174.00,253.00 174.00,393.00 174.00,393.00
             174.00,393.00 96.00,393.00 96.00,393.00
             96.00,393.00 96.00,253.00 96.00,253.00
             96.00,253.00 93.00,253.00 93.00,253.00
             93.00,253.00 93.00,248.00 93.00,248.00
             93.00,248.00 90.00,248.00 90.00,248.00
             90.00,248.00 90.00,242.00 90.00,242.00
             90.00,242.00 93.00,242.00 93.00,242.00
             93.00,242.00 93.00,223.00 93.00,223.00
             93.00,223.00 89.00,223.00 89.00,223.00
             89.00,223.00 89.00,242.00 89.00,242.00
             89.00,242.00 85.00,242.00 85.00,242.00
             85.00,242.00 85.00,393.00 85.00,393.00
             85.00,393.00 40.00,393.00 40.00,393.00
             40.00,393.00 40.00,251.00 40.00,251.00
             40.00,251.00 39.42,244.17 39.42,244.17
             39.42,244.17 22.00,215.00 22.00,215.00
             22.00,215.00 40.00,215.00 40.00,215.00
             40.00,215.00 40.00,212.00 40.00,212.00
             40.00,212.00 188.00,212.00 188.00,212.00
             188.00,212.00 190.00,215.00 190.00,215.00
             186.56,205.73 178.95,213.75 181.00,204.00
             181.00,204.00 169.00,207.00 169.00,207.00
             169.00,207.00 126.00,207.00 126.00,207.00
             126.00,207.00 37.81,207.00 37.81,207.00
             37.81,207.00 37.81,180.00 37.81,180.00
             37.81,180.00 33.00,168.00 33.00,168.00
             33.00,168.00 41.00,168.00 41.00,168.00
             41.00,168.00 41.00,160.00 41.00,160.00
             41.00,160.00 152.00,160.00 152.00,160.00
             152.00,160.00 176.00,160.00 176.00,160.00
             178.10,160.00 181.61,159.75 183.35,160.99
             187.33,163.83 187.99,172.55 188.00,177.00
             188.00,177.00 188.00,203.00 188.00,203.00
             188.00,203.00 192.00,203.00 192.00,203.00
             192.00,203.00 192.00,170.00 192.00,170.00
             192.00,170.00 196.00,171.00 196.00,171.00
             195.34,169.02 194.10,164.85 192.92,163.31
             190.71,160.43 187.38,161.22 186.17,158.71
             183.95,154.10 191.58,154.03 194.00,154.00
             194.00,154.00 194.00,141.00 194.00,141.00
             194.00,141.00 196.79,141.00 196.79,141.00
             196.79,141.00 196.79,115.00 196.79,115.00
             196.79,115.00 191.00,104.00 191.00,104.00
             191.00,104.00 237.00,104.00 237.00,104.00
             237.00,104.00 231.51,114.00 231.51,114.00
             231.51,114.00 231.00,141.00 231.00,141.00
             231.00,141.00 234.00,141.00 234.00,141.00
             234.00,141.00 234.00,154.00 234.00,154.00
             234.00,154.00 241.00,154.00 241.00,154.00
             241.00,154.00 241.00,141.00 241.00,141.00
             241.00,141.00 238.00,141.00 238.00,141.00
             238.00,141.00 238.70,112.00 238.70,112.00
             238.70,112.00 243.00,105.00 243.00,105.00
             243.00,105.00 238.00,105.00 238.00,105.00
             238.06,99.47 237.96,99.62 241.00,95.00
             236.79,93.25 238.00,89.04 238.00,85.00 Z
           M 366.00,119.00
           C 366.00,119.00 256.00,119.00 256.00,119.00
             256.00,119.00 256.00,149.00 256.00,149.00
             256.00,149.00 366.00,149.00 366.00,149.00
             366.00,149.00 366.00,119.00 366.00,119.00 Z
           M 43.00,145.00
           C 43.00,145.00 189.00,145.00 189.00,145.00
             189.00,145.00 189.00,151.00 189.00,151.00
             189.00,151.00 172.00,154.00 172.00,154.00
             172.00,154.00 43.00,154.00 43.00,154.00
             43.00,154.00 43.00,145.00 43.00,145.00 Z
           M 434.00,145.00
           C 434.00,145.00 580.00,145.00 580.00,145.00
             580.00,145.00 580.00,154.00 580.00,154.00
             580.00,154.00 451.00,154.00 451.00,154.00
             451.00,154.00 434.00,151.00 434.00,151.00
             434.00,151.00 434.00,145.00 434.00,145.00 Z
           M 242.00,160.00
           C 250.12,159.74 250.12,155.26 242.00,155.00
             242.00,155.00 242.00,160.00 242.00,160.00 Z
           M 380.00,155.00
           C 371.88,155.26 371.88,159.74 380.00,160.00
             380.00,160.00 380.00,155.00 380.00,155.00 Z
           M 202.00,161.00
           C 202.00,161.00 199.00,161.00 199.00,161.00
             199.61,165.30 199.58,169.27 204.00,171.00
             204.00,171.00 202.00,161.00 202.00,161.00 Z
           M 211.00,161.00
           C 211.00,161.00 208.00,161.00 208.00,161.00
             208.04,165.12 207.50,168.28 211.00,171.00
             211.00,171.00 211.00,161.00 211.00,161.00 Z
           M 220.00,161.00
           C 220.00,161.00 217.00,161.00 217.00,161.00
             217.00,161.00 216.00,171.00 216.00,171.00
             220.19,169.28 219.81,165.06 220.00,161.00 Z
           M 229.00,161.00
           C 229.00,161.00 226.00,161.00 226.00,161.00
             226.00,161.00 224.00,171.00 224.00,171.00
             228.15,169.33 228.18,165.06 229.00,161.00 Z
           M 238.00,161.00
           C 238.00,161.00 235.00,161.00 235.00,161.00
             235.00,161.00 232.00,171.00 232.00,171.00
             236.17,168.53 236.78,165.50 238.00,161.00 Z
           M 390.00,171.00
           C 389.02,166.17 389.07,162.73 384.00,161.00
             385.22,165.50 385.83,168.53 390.00,171.00 Z
           M 396.00,161.00
           C 396.00,161.00 393.00,161.00 393.00,161.00
             393.82,165.06 393.85,169.33 398.00,171.00
             398.00,171.00 396.00,161.00 396.00,161.00 Z
           M 405.00,161.00
           C 405.00,161.00 402.00,161.00 402.00,161.00
             402.19,165.06 401.81,169.28 406.00,171.00
             406.00,171.00 405.00,161.00 405.00,161.00 Z
           M 414.00,161.00
           C 414.00,161.00 411.00,161.00 411.00,161.00
             411.00,161.00 411.00,171.00 411.00,171.00
             414.74,168.39 413.99,165.21 414.00,161.00 Z
           M 423.00,161.00
           C 423.00,161.00 420.00,161.00 420.00,161.00
             420.00,161.00 418.00,171.00 418.00,171.00
             422.48,169.26 422.61,165.36 423.00,161.00 Z
           M 252.00,171.00
           C 252.00,171.00 247.00,171.00 247.00,171.00
             247.00,171.00 247.00,203.00 247.00,203.00
             247.00,203.00 252.00,203.00 252.00,203.00
             252.00,203.00 252.00,171.00 252.00,171.00 Z
           M 269.00,171.00
           C 269.00,171.00 265.00,171.00 265.00,171.00
             265.00,171.00 265.00,203.00 265.00,203.00
             265.00,203.00 269.00,203.00 269.00,203.00
             269.00,203.00 269.00,171.00 269.00,171.00 Z
           M 287.00,171.00
           C 287.00,171.00 282.00,171.00 282.00,171.00
             282.00,171.00 282.00,203.00 282.00,203.00
             282.00,203.00 287.00,203.00 287.00,203.00
             287.00,203.00 287.00,171.00 287.00,171.00 Z
           M 305.00,171.00
           C 305.00,171.00 300.00,171.00 300.00,171.00
             300.00,171.00 300.00,203.00 300.00,203.00
             300.00,203.00 305.00,203.00 305.00,203.00
             305.00,203.00 305.00,171.00 305.00,171.00 Z
           M 322.00,171.00
           C 322.00,171.00 317.00,171.00 317.00,171.00
             317.00,171.00 317.00,203.00 317.00,203.00
             317.00,203.00 322.00,203.00 322.00,203.00
             322.00,203.00 322.00,171.00 322.00,171.00 Z
           M 340.00,171.00
           C 340.00,171.00 335.00,171.00 335.00,171.00
             335.00,171.00 335.00,203.00 335.00,203.00
             335.00,203.00 340.00,203.00 340.00,203.00
             340.00,203.00 340.00,171.00 340.00,171.00 Z
           M 357.00,171.00
           C 357.00,171.00 353.00,171.00 353.00,171.00
             353.00,171.00 353.00,203.00 353.00,203.00
             353.00,203.00 357.00,203.00 357.00,203.00
             357.00,203.00 357.00,171.00 357.00,171.00 Z
           M 375.00,171.00
           C 375.00,171.00 370.00,171.00 370.00,171.00
             370.00,171.00 370.00,203.00 370.00,203.00
             370.00,203.00 375.00,203.00 375.00,203.00
             375.00,203.00 375.00,171.00 375.00,171.00 Z
           M 171.00,184.00
           C 171.00,184.00 89.00,184.00 89.00,184.00
             89.00,184.00 89.00,200.00 89.00,200.00
             89.00,200.00 171.00,200.00 171.00,200.00
             171.00,200.00 171.00,184.00 171.00,184.00 Z
           M 535.00,184.00
           C 535.00,184.00 452.00,184.00 452.00,184.00
             452.00,184.00 452.00,200.00 452.00,200.00
             452.00,200.00 535.00,200.00 535.00,200.00
             535.00,200.00 535.00,184.00 535.00,184.00 Z
           M 195.00,210.00
           C 195.00,210.00 193.00,210.00 193.00,210.00
             193.00,210.00 196.00,220.00 196.00,220.00
             196.00,220.00 195.00,210.00 195.00,210.00 Z
           M 200.00,210.00
           C 198.50,213.83 198.96,216.49 201.00,220.00
             201.00,220.00 200.00,210.00 200.00,210.00 Z
           M 208.00,210.00
           C 208.00,210.00 209.00,220.00 209.00,220.00
             209.00,220.00 208.00,210.00 208.00,210.00 Z
           M 215.00,210.00
           C 215.00,210.00 213.00,210.00 213.00,210.00
             213.00,210.00 213.00,220.00 213.00,220.00
             213.00,220.00 215.00,220.00 215.00,220.00
             215.00,220.00 215.00,210.00 215.00,210.00 Z
           M 220.00,210.00
           C 220.00,210.00 218.00,220.00 218.00,220.00
             218.00,220.00 220.00,220.00 220.00,220.00
             220.00,220.00 220.00,210.00 220.00,210.00 Z
           M 229.00,210.00
           C 229.00,210.00 227.00,210.00 227.00,210.00
             227.00,210.00 226.00,220.00 226.00,220.00
             228.96,217.45 228.83,213.71 229.00,210.00 Z
           M 235.00,210.00
           C 235.00,210.00 233.00,210.00 233.00,210.00
             233.00,210.00 233.00,220.00 233.00,220.00
             233.00,220.00 235.00,210.00 235.00,210.00 Z
           M 240.00,210.00
           C 237.61,213.11 236.74,216.21 238.00,220.00
             238.00,220.00 240.00,210.00 240.00,210.00 Z
           M 383.00,210.00
           C 381.73,213.84 382.80,216.75 385.00,220.00
             385.00,220.00 383.00,210.00 383.00,210.00 Z
           M 388.00,210.00
           C 387.46,213.78 387.86,217.56 391.00,220.00
             391.00,220.00 388.00,210.00 388.00,210.00 Z
           M 395.00,210.00
           C 395.00,210.00 393.00,210.00 393.00,210.00
             393.17,213.71 393.04,217.45 396.00,220.00
             396.00,220.00 395.00,210.00 395.00,210.00 Z
           M 403.00,210.00
           C 403.00,210.00 402.00,220.00 402.00,220.00
             402.00,220.00 404.00,220.00 404.00,220.00
             404.00,220.00 403.00,210.00 403.00,210.00 Z
           M 409.00,210.00
           C 409.00,210.00 407.00,210.00 407.00,210.00
             407.00,210.00 407.00,220.00 407.00,220.00
             407.00,220.00 409.00,220.00 409.00,220.00
             409.00,220.00 409.00,210.00 409.00,210.00 Z
           M 415.00,210.00
           C 415.00,210.00 413.00,210.00 413.00,210.00
             413.00,210.00 414.00,220.00 414.00,220.00
             414.00,220.00 415.00,210.00 415.00,210.00 Z
           M 423.00,210.00
           C 420.75,213.47 420.47,216.14 422.00,220.00
             422.00,220.00 423.00,210.00 423.00,210.00 Z
           M 429.00,210.00
           C 429.00,210.00 427.00,210.00 427.00,210.00
             427.00,210.00 427.00,220.00 427.00,220.00
             427.00,220.00 429.00,210.00 429.00,210.00 Z
           M 50.00,223.00
           C 50.00,223.00 45.00,223.00 45.00,223.00
             45.00,223.00 45.00,242.00 45.00,242.00
             45.00,242.00 50.00,242.00 50.00,242.00
             50.00,242.00 50.00,223.00 50.00,223.00 Z
           M 64.00,223.00
           C 64.00,223.00 60.00,223.00 60.00,223.00
             60.00,223.00 60.00,242.00 60.00,242.00
             60.00,242.00 64.00,242.00 64.00,242.00
             64.00,242.00 64.00,223.00 64.00,223.00 Z
           M 79.00,223.00
           C 79.00,223.00 74.00,223.00 74.00,223.00
             74.00,223.00 74.00,242.00 74.00,242.00
             74.00,242.00 79.00,242.00 79.00,242.00
             79.00,242.00 79.00,223.00 79.00,223.00 Z
           M 107.00,223.00
           C 107.00,223.00 103.00,223.00 103.00,223.00
             103.00,223.00 103.00,242.00 103.00,242.00
             103.00,242.00 107.00,242.00 107.00,242.00
             107.00,242.00 107.00,223.00 107.00,223.00 Z
           M 122.00,223.00
           C 122.00,223.00 118.00,223.00 118.00,223.00
             118.00,223.00 118.00,242.00 118.00,242.00
             118.00,242.00 122.00,242.00 122.00,242.00
             122.00,242.00 122.00,223.00 122.00,223.00 Z
           M 136.00,223.00
           C 136.00,223.00 132.00,223.00 132.00,223.00
             132.00,223.00 132.00,242.00 132.00,242.00
             132.00,242.00 136.00,242.00 136.00,242.00
             136.00,242.00 136.00,223.00 136.00,223.00 Z
           M 151.00,223.00
           C 151.00,223.00 146.00,223.00 146.00,223.00
             146.00,223.00 146.00,242.00 146.00,242.00
             146.00,242.00 151.00,242.00 151.00,242.00
             151.00,242.00 151.00,223.00 151.00,223.00 Z
           M 165.00,223.00
           C 165.00,223.00 161.00,223.00 161.00,223.00
             161.00,223.00 161.00,242.00 161.00,242.00
             161.00,242.00 165.00,242.00 165.00,242.00
             165.00,242.00 165.00,223.00 165.00,223.00 Z
           M 180.00,223.00
           C 180.00,223.00 175.00,223.00 175.00,223.00
             175.00,223.00 175.00,242.00 175.00,242.00
             175.00,242.00 180.00,242.00 180.00,242.00
             180.00,242.00 180.00,223.00 180.00,223.00 Z
           M 447.00,223.00
           C 447.00,223.00 442.00,223.00 442.00,223.00
             442.00,223.00 442.00,242.00 442.00,242.00
             442.00,242.00 447.00,242.00 447.00,242.00
             447.00,242.00 447.00,223.00 447.00,223.00 Z
           M 461.00,223.00
           C 461.00,223.00 457.00,223.00 457.00,223.00
             457.00,223.00 457.00,242.00 457.00,242.00
             457.00,242.00 461.00,242.00 461.00,242.00
             461.00,242.00 461.00,223.00 461.00,223.00 Z
           M 476.00,223.00
           C 476.00,223.00 471.00,223.00 471.00,223.00
             471.00,223.00 471.00,242.00 471.00,242.00
             471.00,242.00 476.00,242.00 476.00,242.00
             476.00,242.00 476.00,223.00 476.00,223.00 Z
           M 490.00,223.00
           C 490.00,223.00 486.00,223.00 486.00,223.00
             486.00,223.00 486.00,242.00 486.00,242.00
             486.00,242.00 490.00,242.00 490.00,242.00
             490.00,242.00 490.00,223.00 490.00,223.00 Z
           M 504.00,223.00
           C 504.00,223.00 500.00,223.00 500.00,223.00
             500.00,223.00 500.00,242.00 500.00,242.00
             500.00,242.00 504.00,242.00 504.00,242.00
             504.00,242.00 504.00,223.00 504.00,223.00 Z
           M 519.00,223.00
           C 519.00,223.00 515.00,223.00 515.00,223.00
             515.00,223.00 515.00,242.00 515.00,242.00
             515.00,242.00 519.00,242.00 519.00,242.00
             519.00,242.00 519.00,223.00 519.00,223.00 Z
           M 548.00,223.00
           C 548.00,223.00 543.00,223.00 543.00,223.00
             543.00,223.00 543.00,242.00 543.00,242.00
             543.00,242.00 548.00,242.00 548.00,242.00
             548.00,242.00 548.00,223.00 548.00,223.00 Z
           M 562.00,223.00
           C 562.00,223.00 558.00,223.00 558.00,223.00
             558.00,223.00 558.00,242.00 558.00,242.00
             558.00,242.00 562.00,242.00 562.00,242.00
             562.00,242.00 562.00,223.00 562.00,223.00 Z
           M 577.00,223.00
           C 577.00,223.00 572.00,223.00 572.00,223.00
             572.00,223.00 572.00,242.00 572.00,242.00
             572.00,242.00 577.00,242.00 577.00,242.00
             577.00,242.00 577.00,223.00 577.00,223.00 Z
           M 370.00,300.00
           C 367.78,272.60 358.56,250.25 334.00,235.60
             328.23,232.16 317.77,227.18 311.00,227.18
             304.23,227.18 293.77,232.16 288.00,235.60
             263.43,250.25 254.22,272.61 252.00,300.00
             252.00,300.00 255.00,300.00 255.00,300.00
             257.14,273.58 267.26,252.45 291.00,238.87
             295.43,236.34 306.02,231.37 311.00,231.37
             315.98,231.37 326.57,236.34 331.00,238.87
             354.74,252.45 364.86,273.58 367.00,300.00
             367.00,300.00 370.00,300.00 370.00,300.00 Z
           M 200.00,235.00
           C 200.00,235.00 192.00,235.00 192.00,235.00
             192.00,235.00 192.00,357.00 192.00,357.00
             192.00,357.00 200.00,357.00 200.00,357.00
             200.00,357.00 200.00,235.00 200.00,235.00 Z
           M 218.00,235.00
           C 218.00,235.00 210.00,235.00 210.00,235.00
             210.00,235.00 210.00,357.00 210.00,357.00
             210.00,357.00 218.00,357.00 218.00,357.00
             218.00,357.00 218.00,235.00 218.00,235.00 Z
           M 236.00,235.00
           C 236.00,235.00 228.00,235.00 228.00,235.00
             228.00,235.00 228.00,357.00 228.00,357.00
             228.00,357.00 236.00,357.00 236.00,357.00
             236.00,357.00 236.00,235.00 236.00,235.00 Z
           M 394.00,235.00
           C 394.00,235.00 386.00,235.00 386.00,235.00
             386.00,235.00 386.00,357.00 386.00,357.00
             386.00,357.00 394.00,357.00 394.00,357.00
             394.00,357.00 394.00,235.00 394.00,235.00 Z
           M 412.00,235.00
           C 412.00,235.00 404.00,235.00 404.00,235.00
             404.00,235.00 404.00,357.00 404.00,357.00
             404.00,357.00 412.00,357.00 412.00,357.00
             412.00,357.00 412.00,235.00 412.00,235.00 Z
           M 430.00,235.00
           C 430.00,235.00 422.00,235.00 422.00,235.00
             422.00,235.00 422.00,357.00 422.00,357.00
             422.00,357.00 430.00,357.00 430.00,357.00
             430.00,357.00 430.00,235.00 430.00,235.00 Z
           M 137.00,264.00
           C 130.23,264.57 131.02,267.00 131.00,273.00
             131.00,273.00 137.00,273.00 137.00,273.00
             137.00,273.00 137.00,264.00 137.00,264.00 Z
           M 491.00,273.00
           C 490.98,267.00 491.77,264.57 485.00,264.00
             485.00,264.00 485.00,273.00 485.00,273.00
             485.00,273.00 491.00,273.00 491.00,273.00 Z
           M 146.00,273.00
           C 145.81,267.00 145.00,266.16 139.00,265.00
             139.00,265.00 139.00,273.00 139.00,273.00
             139.00,273.00 146.00,273.00 146.00,273.00 Z
           M 483.00,265.00
           C 477.00,266.16 476.19,267.00 476.00,273.00
             476.00,273.00 483.00,273.00 483.00,273.00
             483.00,273.00 483.00,265.00 483.00,265.00 Z
           M 129.00,266.00
           C 124.00,267.10 123.42,267.95 123.00,273.00
             123.00,273.00 129.00,273.00 129.00,273.00
             129.00,273.00 129.00,266.00 129.00,266.00 Z
           M 499.00,273.00
           C 498.58,267.95 498.00,267.10 493.00,266.00
             493.00,266.00 493.00,273.00 493.00,273.00
             493.00,273.00 499.00,273.00 499.00,273.00 Z
           M 149.00,269.00
           C 149.00,269.00 148.00,273.00 148.00,273.00
             148.00,273.00 153.00,273.00 153.00,273.00
             153.00,273.00 149.00,269.00 149.00,269.00 Z
           M 474.00,269.00
           C 474.00,269.00 469.00,273.00 469.00,273.00
             469.00,273.00 474.00,273.00 474.00,273.00
             474.00,273.00 474.00,269.00 474.00,269.00 Z
           M 121.00,270.00
           C 121.00,270.00 117.00,273.00 117.00,273.00
             119.87,272.45 119.87,272.71 121.00,270.00 Z
           M 502.00,270.00
           C 501.40,272.73 502.60,272.56 505.00,273.00
             505.00,273.00 502.00,270.00 502.00,270.00 Z
           M 121.00,274.00
           C 114.82,274.22 114.22,274.82 114.00,281.00
             114.00,281.00 121.00,281.00 121.00,281.00
             121.00,281.00 121.00,274.00 121.00,274.00 Z
           M 129.00,274.00
           C 129.00,274.00 123.00,274.00 123.00,274.00
             123.00,274.00 123.00,281.00 123.00,281.00
             123.00,281.00 129.00,281.00 129.00,281.00
             129.00,281.00 129.00,274.00 129.00,274.00 Z
           M 137.00,274.00
           C 137.00,274.00 131.00,274.00 131.00,274.00
             131.00,274.00 131.00,281.00 131.00,281.00
             131.00,281.00 137.00,281.00 137.00,281.00
             137.00,281.00 137.00,274.00 137.00,274.00 Z
           M 146.00,274.00
           C 146.00,274.00 139.00,274.00 139.00,274.00
             139.00,274.00 139.00,281.00 139.00,281.00
             139.00,281.00 146.00,281.00 146.00,281.00
             146.00,281.00 146.00,274.00 146.00,274.00 Z
           M 154.00,274.00
           C 154.00,274.00 148.00,274.00 148.00,274.00
             148.00,274.00 148.00,281.00 148.00,281.00
             148.00,281.00 154.00,281.00 154.00,281.00
             154.00,281.00 154.00,274.00 154.00,274.00 Z
           M 474.00,274.00
           C 474.00,274.00 468.00,274.00 468.00,274.00
             468.00,274.00 468.00,281.00 468.00,281.00
             468.00,281.00 474.00,281.00 474.00,281.00
             474.00,281.00 474.00,274.00 474.00,274.00 Z
           M 483.00,274.00
           C 483.00,274.00 476.00,274.00 476.00,274.00
             476.00,274.00 476.00,281.00 476.00,281.00
             476.00,281.00 483.00,281.00 483.00,281.00
             483.00,281.00 483.00,274.00 483.00,274.00 Z
           M 491.00,274.00
           C 491.00,274.00 485.00,274.00 485.00,274.00
             485.00,274.00 485.00,281.00 485.00,281.00
             485.00,281.00 491.00,281.00 491.00,281.00
             491.00,281.00 491.00,274.00 491.00,274.00 Z
           M 499.00,274.00
           C 499.00,274.00 493.00,274.00 493.00,274.00
             493.00,274.00 493.00,281.00 493.00,281.00
             493.00,281.00 499.00,281.00 499.00,281.00
             499.00,281.00 499.00,274.00 499.00,274.00 Z
           M 508.00,281.00
           C 507.78,274.82 507.18,274.22 501.00,274.00
             501.00,274.00 501.00,281.00 501.00,281.00
             501.00,281.00 508.00,281.00 508.00,281.00 Z
           M 157.00,275.00
           C 157.00,275.00 156.00,281.00 156.00,281.00
             156.00,281.00 160.00,281.00 160.00,281.00
             160.00,281.00 157.00,275.00 157.00,275.00 Z
           M 466.00,275.00
           C 466.00,275.00 462.00,281.00 462.00,281.00
             462.00,281.00 466.00,281.00 466.00,281.00
             466.00,281.00 466.00,275.00 466.00,275.00 Z
           M 112.00,283.00
           C 108.04,284.31 107.88,285.00 107.00,289.00
             107.00,289.00 112.00,289.00 112.00,289.00
             112.00,289.00 112.00,283.00 112.00,283.00 Z
           M 121.00,283.00
           C 121.00,283.00 114.00,283.00 114.00,283.00
             114.00,283.00 114.00,289.00 114.00,289.00
             114.00,289.00 121.00,289.00 121.00,289.00
             121.00,289.00 121.00,283.00 121.00,283.00 Z
           M 129.00,283.00
           C 129.00,283.00 123.00,283.00 123.00,283.00
             123.00,283.00 123.00,289.00 123.00,289.00
             123.00,289.00 129.00,289.00 129.00,289.00
             129.00,289.00 129.00,283.00 129.00,283.00 Z
           M 137.00,283.00
           C 137.00,283.00 131.00,283.00 131.00,283.00
             131.00,283.00 131.00,289.00 131.00,289.00
             131.00,289.00 137.00,289.00 137.00,289.00
             137.00,289.00 137.00,283.00 137.00,283.00 Z
           M 146.00,283.00
           C 146.00,283.00 139.00,283.00 139.00,283.00
             139.00,283.00 139.00,289.00 139.00,289.00
             139.00,289.00 146.00,289.00 146.00,289.00
             146.00,289.00 146.00,283.00 146.00,283.00 Z
           M 154.00,283.00
           C 154.00,283.00 148.00,283.00 148.00,283.00
             148.00,283.00 148.00,289.00 148.00,289.00
             148.00,289.00 154.00,289.00 154.00,289.00
             154.00,289.00 154.00,283.00 154.00,283.00 Z
           M 164.00,289.00
           C 162.00,283.60 161.77,283.19 156.00,283.00
             156.00,283.00 156.00,289.00 156.00,289.00
             156.00,289.00 164.00,289.00 164.00,289.00 Z
           M 466.00,283.00
           C 460.23,283.19 460.00,283.60 458.00,289.00
             458.00,289.00 466.00,289.00 466.00,289.00
             466.00,289.00 466.00,283.00 466.00,283.00 Z
           M 474.00,283.00
           C 474.00,283.00 468.00,283.00 468.00,283.00
             468.00,283.00 468.00,289.00 468.00,289.00
             468.00,289.00 474.00,289.00 474.00,289.00
             474.00,289.00 474.00,283.00 474.00,283.00 Z
           M 483.00,283.00
           C 483.00,283.00 476.00,283.00 476.00,283.00
             476.00,283.00 476.00,289.00 476.00,289.00
             476.00,289.00 483.00,289.00 483.00,289.00
             483.00,289.00 483.00,283.00 483.00,283.00 Z
           M 491.00,283.00
           C 491.00,283.00 485.00,283.00 485.00,283.00
             485.00,283.00 485.00,289.00 485.00,289.00
             485.00,289.00 491.00,289.00 491.00,289.00
             491.00,289.00 491.00,283.00 491.00,283.00 Z
           M 499.00,283.00
           C 499.00,283.00 493.00,283.00 493.00,283.00
             493.00,283.00 493.00,289.00 493.00,289.00
             493.00,289.00 499.00,289.00 499.00,289.00
             499.00,289.00 499.00,283.00 499.00,283.00 Z
           M 508.00,283.00
           C 508.00,283.00 501.00,283.00 501.00,283.00
             501.00,283.00 501.00,289.00 501.00,289.00
             501.00,289.00 508.00,289.00 508.00,289.00
             508.00,289.00 508.00,283.00 508.00,283.00 Z
           M 515.00,289.00
           C 514.12,285.00 513.96,284.31 510.00,283.00
             510.00,283.00 510.00,289.00 510.00,289.00
             510.00,289.00 515.00,289.00 515.00,289.00 Z
           M 112.00,291.00
           C 106.53,291.19 105.47,291.33 105.00,297.00
             105.00,297.00 112.00,297.00 112.00,297.00
             112.00,297.00 112.00,291.00 112.00,291.00 Z
           M 121.00,291.00
           C 121.00,291.00 114.00,291.00 114.00,291.00
             114.00,291.00 114.00,297.00 114.00,297.00
             114.00,297.00 121.00,297.00 121.00,297.00
             121.00,297.00 121.00,291.00 121.00,291.00 Z
           M 129.00,291.00
           C 129.00,291.00 123.00,291.00 123.00,291.00
             123.00,291.00 123.00,297.00 123.00,297.00
             123.00,297.00 129.00,297.00 129.00,297.00
             129.00,297.00 129.00,291.00 129.00,291.00 Z
           M 137.00,291.00
           C 137.00,291.00 131.00,291.00 131.00,291.00
             131.00,291.00 131.00,297.00 131.00,297.00
             131.00,297.00 137.00,297.00 137.00,297.00
             137.00,297.00 137.00,291.00 137.00,291.00 Z
           M 146.00,291.00
           C 146.00,291.00 139.00,291.00 139.00,291.00
             139.00,291.00 139.00,297.00 139.00,297.00
             139.00,297.00 146.00,297.00 146.00,297.00
             146.00,297.00 146.00,291.00 146.00,291.00 Z
           M 154.00,291.00
           C 154.00,291.00 148.00,291.00 148.00,291.00
             148.00,291.00 148.00,297.00 148.00,297.00
             148.00,297.00 154.00,297.00 154.00,297.00
             154.00,297.00 154.00,291.00 154.00,291.00 Z
           M 165.00,291.00
           C 165.00,291.00 156.00,291.00 156.00,291.00
             156.00,291.00 156.00,297.00 156.00,297.00
             156.00,297.00 166.00,297.00 166.00,297.00
             166.00,297.00 165.00,291.00 165.00,291.00 Z
           M 466.00,291.00
           C 466.00,291.00 457.00,291.00 457.00,291.00
             457.00,291.00 456.00,297.00 456.00,297.00
             456.00,297.00 466.00,297.00 466.00,297.00
             466.00,297.00 466.00,291.00 466.00,291.00 Z
           M 474.00,291.00
           C 474.00,291.00 468.00,291.00 468.00,291.00
             468.00,291.00 468.00,297.00 468.00,297.00
             468.00,297.00 474.00,297.00 474.00,297.00
             474.00,297.00 474.00,291.00 474.00,291.00 Z
           M 483.00,291.00
           C 483.00,291.00 476.00,291.00 476.00,291.00
             476.00,291.00 476.00,297.00 476.00,297.00
             476.00,297.00 483.00,297.00 483.00,297.00
             483.00,297.00 483.00,291.00 483.00,291.00 Z
           M 491.00,291.00
           C 491.00,291.00 485.00,291.00 485.00,291.00
             485.00,291.00 485.00,297.00 485.00,297.00
             485.00,297.00 491.00,297.00 491.00,297.00
             491.00,297.00 491.00,291.00 491.00,291.00 Z
           M 499.00,291.00
           C 499.00,291.00 493.00,291.00 493.00,291.00
             493.00,291.00 493.00,297.00 493.00,297.00
             493.00,297.00 499.00,297.00 499.00,297.00
             499.00,297.00 499.00,291.00 499.00,291.00 Z
           M 508.00,291.00
           C 508.00,291.00 501.00,291.00 501.00,291.00
             501.00,291.00 501.00,297.00 501.00,297.00
             501.00,297.00 508.00,297.00 508.00,297.00
             508.00,297.00 508.00,291.00 508.00,291.00 Z
           M 517.00,297.00
           C 516.53,291.33 515.47,291.19 510.00,291.00
             510.00,291.00 510.00,297.00 510.00,297.00
             510.00,297.00 517.00,297.00 517.00,297.00 Z
           M 112.00,299.00
           C 112.00,299.00 104.00,299.00 104.00,299.00
             104.00,299.00 104.00,307.00 104.00,307.00
             104.00,307.00 112.00,307.00 112.00,307.00
             112.00,307.00 112.00,299.00 112.00,299.00 Z
           M 121.00,299.00
           C 121.00,299.00 114.00,299.00 114.00,299.00
             114.00,299.00 114.00,307.00 114.00,307.00
             114.00,307.00 121.00,307.00 121.00,307.00
             121.00,307.00 121.00,299.00 121.00,299.00 Z
           M 129.00,299.00
           C 129.00,299.00 123.00,299.00 123.00,299.00
             123.00,299.00 123.00,307.00 123.00,307.00
             123.00,307.00 129.00,307.00 129.00,307.00
             129.00,307.00 129.00,299.00 129.00,299.00 Z
           M 137.00,299.00
           C 137.00,299.00 131.00,299.00 131.00,299.00
             131.00,299.00 131.00,307.00 131.00,307.00
             131.00,307.00 137.00,307.00 137.00,307.00
             137.00,307.00 137.00,299.00 137.00,299.00 Z
           M 146.00,299.00
           C 146.00,299.00 139.00,299.00 139.00,299.00
             139.00,299.00 139.00,307.00 139.00,307.00
             139.00,307.00 146.00,307.00 146.00,307.00
             146.00,307.00 146.00,299.00 146.00,299.00 Z
           M 154.00,299.00
           C 154.00,299.00 148.00,299.00 148.00,299.00
             148.00,299.00 148.00,307.00 148.00,307.00
             148.00,307.00 154.00,307.00 154.00,307.00
             154.00,307.00 154.00,299.00 154.00,299.00 Z
           M 166.00,299.00
           C 166.00,299.00 156.00,299.00 156.00,299.00
             156.00,299.00 156.00,307.00 156.00,307.00
             156.00,307.00 167.00,307.00 167.00,307.00
             167.00,307.00 166.00,299.00 166.00,299.00 Z
           M 466.00,299.00
           C 466.00,299.00 456.00,299.00 456.00,299.00
             456.00,299.00 455.00,307.00 455.00,307.00
             455.00,307.00 466.00,307.00 466.00,307.00
             466.00,307.00 466.00,299.00 466.00,299.00 Z
           M 474.00,299.00
           C 474.00,299.00 468.00,299.00 468.00,299.00
             468.00,299.00 468.00,307.00 468.00,307.00
             468.00,307.00 474.00,307.00 474.00,307.00
             474.00,307.00 474.00,299.00 474.00,299.00 Z
           M 483.00,299.00
           C 483.00,299.00 476.00,299.00 476.00,299.00
             476.00,299.00 476.00,307.00 476.00,307.00
             476.00,307.00 483.00,307.00 483.00,307.00
             483.00,307.00 483.00,299.00 483.00,299.00 Z
           M 491.00,299.00
           C 491.00,299.00 485.00,299.00 485.00,299.00
             485.00,299.00 485.00,307.00 485.00,307.00
             485.00,307.00 491.00,307.00 491.00,307.00
             491.00,307.00 491.00,299.00 491.00,299.00 Z
           M 499.00,299.00
           C 499.00,299.00 493.00,299.00 493.00,299.00
             493.00,299.00 493.00,307.00 493.00,307.00
             493.00,307.00 499.00,307.00 499.00,307.00
             499.00,307.00 499.00,299.00 499.00,299.00 Z
           M 508.00,299.00
           C 508.00,299.00 501.00,299.00 501.00,299.00
             501.00,299.00 501.00,307.00 501.00,307.00
             501.00,307.00 508.00,307.00 508.00,307.00
             508.00,307.00 508.00,299.00 508.00,299.00 Z
           M 518.00,299.00
           C 518.00,299.00 510.00,299.00 510.00,299.00
             510.00,299.00 510.00,307.00 510.00,307.00
             510.00,307.00 518.00,307.00 518.00,307.00
             518.00,307.00 518.00,299.00 518.00,299.00 Z
           M 250.00,301.00
           C 250.00,301.00 247.00,301.00 247.00,301.00
             247.00,301.00 247.00,307.00 247.00,307.00
             247.00,307.00 250.00,307.00 250.00,307.00
             250.00,307.00 250.00,301.00 250.00,301.00 Z
           M 375.00,301.00
           C 375.00,301.00 372.00,301.00 372.00,301.00
             372.00,301.00 372.00,307.00 372.00,307.00
             372.00,307.00 375.00,307.00 375.00,307.00
             375.00,307.00 375.00,301.00 375.00,301.00 Z" />
</svg>
