<?xml version="1.0" encoding="UTF-8" standalone="no"?>
<!DOCTYPE svg PUBLIC "-//W3C//DTD SVG 20010904//EN"
              "http://www.w3.org/TR/2001/REC-SVG-20010904/DTD/svg10.dtd">

<svg xmlns="http://www.w3.org/2000/svg"
     width="5.51389in" height="0.986111in"
     viewBox="0 0 397 71">
  <path id="Selection"
        fill="white" stroke="white" stroke-width="1"
        d="M 349.00,6.00
           C 349.00,6.00 360.00,17.00 360.00,17.00
             358.02,24.12 366.00,20.72 362.00,27.00
             362.00,27.00 386.00,30.00 386.00,30.00
             386.00,30.00 386.00,32.00 386.00,32.00
             386.00,32.00 362.00,35.00 362.00,35.00
             362.00,35.00 364.00,40.00 364.00,40.00
             364.00,40.00 358.00,43.00 358.00,43.00
             358.00,43.00 358.73,44.99 358.73,44.99
             358.73,44.99 349.00,56.00 349.00,56.00
             349.00,56.00 354.00,34.06 354.00,34.06
             354.00,34.06 334.04,34.06 334.04,34.06
             334.04,34.06 325.00,42.00 325.00,42.00
             327.45,32.75 327.66,30.20 325.00,21.00
             325.00,21.00 334.17,28.20 334.17,28.20
             334.17,28.20 354.00,28.20 354.00,28.20
             354.00,28.20 349.00,6.00 349.00,6.00 Z
           M 1.00,30.00
           C 1.00,30.00 6.00,30.00 6.00,30.00
             6.00,30.00 6.00,32.00 6.00,32.00
             6.00,32.00 1.00,32.00 1.00,32.00
             1.00,32.00 1.00,30.00 1.00,30.00 Z
           M 14.00,30.00
           C 14.00,30.00 24.00,30.00 24.00,30.00
             24.00,30.00 24.00,32.00 24.00,32.00
             24.00,32.00 14.00,32.00 14.00,32.00
             14.00,32.00 14.00,30.00 14.00,30.00 Z
           M 32.00,30.00
           C 32.00,30.00 41.00,30.00 41.00,30.00
             41.00,30.00 41.00,32.00 41.00,32.00
             41.00,32.00 32.00,32.00 32.00,32.00
             32.00,32.00 32.00,30.00 32.00,30.00 Z
           M 50.00,30.00
           C 50.00,30.00 59.00,30.00 59.00,30.00
             59.00,30.00 59.00,32.00 59.00,32.00
             59.00,32.00 50.00,32.00 50.00,32.00
             50.00,32.00 50.00,30.00 50.00,30.00 Z
           M 68.00,30.00
           C 68.00,30.00 77.00,30.00 77.00,30.00
             77.00,30.00 77.00,32.00 77.00,32.00
             77.00,32.00 68.00,32.00 68.00,32.00
             68.00,32.00 68.00,30.00 68.00,30.00 Z
           M 85.00,30.00
           C 85.00,30.00 95.00,30.00 95.00,30.00
             95.00,30.00 95.00,32.00 95.00,32.00
             95.00,32.00 85.00,32.00 85.00,32.00
             85.00,32.00 85.00,30.00 85.00,30.00 Z
           M 103.00,30.00
           C 103.00,30.00 112.00,30.00 112.00,30.00
             112.00,30.00 112.00,32.00 112.00,32.00
             112.00,32.00 103.00,32.00 103.00,32.00
             103.00,32.00 103.00,30.00 103.00,30.00 Z
           M 121.00,30.00
           C 121.00,30.00 130.00,30.00 130.00,30.00
             130.00,30.00 130.00,32.00 130.00,32.00
             130.00,32.00 121.00,32.00 121.00,32.00
             121.00,32.00 121.00,30.00 121.00,30.00 Z
           M 139.00,30.00
           C 139.00,30.00 148.00,30.00 148.00,30.00
             148.00,30.00 148.00,32.00 148.00,32.00
             148.00,32.00 139.00,32.00 139.00,32.00
             139.00,32.00 139.00,30.00 139.00,30.00 Z
           M 156.00,30.00
           C 156.00,30.00 166.00,30.00 166.00,30.00
             166.00,30.00 166.00,32.00 166.00,32.00
             166.00,32.00 156.00,32.00 156.00,32.00
             156.00,32.00 156.00,30.00 156.00,30.00 Z
           M 174.00,30.00
           C 174.00,30.00 183.00,30.00 183.00,30.00
             183.00,30.00 183.00,32.00 183.00,32.00
             183.00,32.00 174.00,32.00 174.00,32.00
             174.00,32.00 174.00,30.00 174.00,30.00 Z
           M 192.00,30.00
           C 192.00,30.00 201.00,30.00 201.00,30.00
             201.00,30.00 201.00,32.00 201.00,32.00
             201.00,32.00 192.00,32.00 192.00,32.00
             192.00,32.00 192.00,30.00 192.00,30.00 Z
           M 210.00,30.00
           C 210.00,30.00 219.00,30.00 219.00,30.00
             219.00,30.00 219.00,32.00 219.00,32.00
             219.00,32.00 210.00,32.00 210.00,32.00
             210.00,32.00 210.00,30.00 210.00,30.00 Z
           M 227.00,30.00
           C 231.18,30.00 233.49,29.42 237.00,32.00
             237.00,32.00 227.00,32.00 227.00,32.00
             227.00,32.00 227.00,30.00 227.00,30.00 Z
           M 245.00,30.00
           C 245.00,30.00 254.00,30.00 254.00,30.00
             254.00,30.00 254.00,32.00 254.00,32.00
             254.00,32.00 245.00,32.00 245.00,32.00
             245.00,32.00 245.00,30.00 245.00,30.00 Z
           M 263.00,30.00
           C 263.00,30.00 272.00,30.00 272.00,30.00
             272.00,30.00 272.00,32.00 272.00,32.00
             272.00,32.00 263.00,32.00 263.00,32.00
             263.00,32.00 263.00,30.00 263.00,30.00 Z
           M 281.00,30.00
           C 281.00,30.00 290.00,30.00 290.00,30.00
             290.00,30.00 290.00,32.00 290.00,32.00
             290.00,32.00 281.00,32.00 281.00,32.00
             281.00,32.00 281.00,30.00 281.00,30.00 Z
           M 298.00,30.00
           C 298.00,30.00 308.00,30.00 308.00,30.00
             308.00,30.00 308.00,32.00 308.00,32.00
             308.00,32.00 298.00,32.00 298.00,32.00
             298.00,32.00 298.00,30.00 298.00,30.00 Z
           M 316.00,30.00
           C 316.00,30.00 321.00,30.00 321.00,30.00
             321.00,30.00 321.00,32.00 321.00,32.00
             321.00,32.00 316.00,32.00 316.00,32.00
             316.00,32.00 316.00,30.00 316.00,30.00 Z" />
</svg>
