<?xml version="1.0" encoding="UTF-8" standalone="no"?>
<!DOCTYPE svg PUBLIC "-//W3C//DTD SVG 20010904//EN"
              "http://www.w3.org/TR/2001/REC-SVG-20010904/DTD/svg10.dtd">

<svg xmlns="http://www.w3.org/2000/svg"
     width="9.23333in" height="5.13333in"
     viewBox="0 0 831 462">
  <path id="Selection"
        fill=" rgb(51, 75, 142)" stroke=" rgb(51, 75, 142)" stroke-width="1"
        d="M 429.00,10.00
           C 429.00,10.00 431.00,10.00 431.00,10.00
             432.67,15.89 431.46,16.89 432.27,20.91
             432.89,23.96 434.60,25.33 434.48,28.04
             434.37,30.54 432.65,32.29 432.89,35.00
             433.02,39.75 436.15,38.79 432.89,46.00
             439.53,50.56 431.41,53.24 437.11,60.00
             442.45,66.32 458.57,77.04 466.00,82.42
             475.77,89.51 485.38,97.68 493.08,107.00
             505.15,121.62 512.82,138.12 506.13,157.00
             504.64,161.22 500.47,169.94 495.96,171.31
             493.52,172.05 486.97,169.94 484.00,169.43
             484.00,169.43 457.00,167.00 457.00,167.00
             457.00,167.00 401.00,167.00 401.00,167.00
             394.14,167.08 381.79,168.36 375.00,169.61
             371.70,170.22 366.09,172.42 363.17,170.94
             357.93,168.28 353.12,155.69 352.15,150.00
             352.15,150.00 352.15,141.00 352.15,141.00
             352.33,113.45 381.77,91.36 402.00,76.86
             406.51,73.63 422.01,62.57 424.54,58.83
             427.08,55.10 423.87,53.92 424.54,49.00
             424.54,49.00 427.08,33.00 427.08,33.00
             426.82,31.61 425.82,29.97 425.82,28.00
             425.83,25.66 427.19,23.89 427.73,21.00
             428.54,16.67 427.35,15.81 429.00,10.00 Z
           M 93.00,88.00
           C 93.00,88.00 95.00,88.00 95.00,88.00
             102.80,98.05 108.30,94.51 109.00,107.00
             109.00,107.00 115.00,107.00 115.00,107.00
             113.32,111.19 112.28,110.86 108.00,111.00
             107.04,125.12 103.95,117.74 108.00,135.00
             114.81,135.24 116.06,137.12 112.00,143.00
             112.00,143.00 109.00,140.00 109.00,140.00
             109.00,140.00 109.00,159.00 109.00,159.00
             109.00,159.00 109.93,172.00 109.93,172.00
             109.93,172.00 109.93,182.17 109.93,182.17
             109.93,182.17 111.00,199.00 111.00,199.00
             111.00,199.00 112.00,220.00 112.00,220.00
             118.56,221.14 117.02,225.25 112.00,227.00
             112.00,227.00 113.00,256.00 113.00,256.00
             113.00,256.00 114.01,272.99 114.01,272.99
             114.01,272.99 114.01,284.00 114.01,284.00
             114.01,284.00 115.00,295.00 115.00,295.00
             115.00,295.00 120.00,296.00 120.00,296.00
             118.74,299.53 118.61,300.63 115.00,302.00
             115.00,302.00 116.00,322.00 116.00,322.00
             116.00,322.00 117.00,354.00 117.00,354.00
             117.00,354.00 118.00,375.00 118.00,375.00
             118.00,375.00 178.00,375.00 178.00,375.00
             178.00,375.00 179.04,362.00 179.04,362.00
             179.04,362.00 179.04,348.42 179.04,348.42
             179.44,335.57 182.27,327.51 177.00,315.00
             182.79,311.29 180.93,305.26 181.00,299.00
             181.00,299.00 181.97,289.00 181.97,289.00
             181.97,289.00 181.97,276.00 181.97,276.00
             182.01,270.95 183.28,265.88 181.97,261.00
             181.97,261.00 180.00,263.00 180.00,263.00
             180.00,263.00 179.00,257.00 179.00,257.00
             179.00,257.00 183.00,257.00 183.00,257.00
             183.00,257.00 184.00,227.00 184.00,227.00
             184.01,217.42 186.63,205.26 184.00,196.00
             184.00,196.00 182.00,198.00 182.00,198.00
             182.00,198.00 180.00,194.00 180.00,194.00
             180.00,194.00 186.00,193.00 186.00,193.00
             189.36,178.67 187.32,186.85 186.00,174.00
             186.00,174.00 180.00,172.00 180.00,172.00
             180.00,172.00 185.00,171.00 185.00,171.00
             186.02,162.17 189.69,163.65 195.00,157.00
             201.87,160.08 206.71,163.28 208.00,171.00
             208.00,171.00 213.00,173.00 213.00,173.00
             213.00,173.00 207.00,174.00 207.00,174.00
             205.68,186.85 203.64,178.67 207.00,193.00
             207.00,193.00 213.00,194.00 213.00,194.00
             213.00,194.00 211.00,198.00 211.00,198.00
             211.00,198.00 208.00,196.00 208.00,196.00
             208.00,196.00 209.00,240.00 209.00,240.00
             209.00,240.00 210.00,257.00 210.00,257.00
             210.00,257.00 214.00,258.00 214.00,258.00
             214.00,258.00 210.30,266.09 210.30,266.09
             210.30,266.09 211.00,281.00 211.00,281.00
             211.00,281.00 212.00,314.00 212.00,314.00
             212.00,314.00 216.00,315.00 216.00,315.00
             216.00,315.00 212.00,320.00 212.00,320.00
             212.00,320.00 213.00,338.00 213.00,338.00
             213.00,338.00 214.01,352.00 214.01,352.00
             214.01,352.00 214.01,366.00 214.01,366.00
             214.01,366.00 215.00,375.00 215.00,375.00
             215.00,375.00 244.00,375.00 244.00,375.00
             244.00,375.00 244.00,262.00 244.00,262.00
             244.00,262.00 245.60,253.93 245.60,253.93
             245.60,253.93 257.00,250.58 257.00,250.58
             257.00,250.58 285.00,244.00 285.00,244.00
             285.00,244.00 285.00,375.00 285.00,375.00
             285.00,375.00 288.00,375.00 288.00,375.00
             288.00,375.00 288.00,244.00 288.00,244.00
             288.00,244.00 355.00,244.00 355.00,244.00
             355.00,244.00 355.00,375.00 355.00,375.00
             355.00,375.00 357.00,375.00 357.00,375.00
             357.00,375.00 357.00,209.00 357.00,209.00
             357.00,209.00 364.00,209.00 364.00,209.00
             364.00,209.00 364.00,197.00 364.00,197.00
             364.00,194.53 363.59,190.88 365.57,189.09
             367.63,187.23 374.17,186.22 377.00,185.75
             377.00,185.75 409.00,183.00 409.00,183.00
             430.84,182.97 453.35,181.90 475.00,184.72
             479.29,185.28 492.49,186.36 495.01,189.70
             496.26,191.36 496.00,194.97 496.00,197.00
             496.00,197.00 496.00,209.00 496.00,209.00
             496.00,209.00 503.00,209.00 503.00,209.00
             503.00,209.00 503.00,375.00 503.00,375.00
             503.00,375.00 505.00,375.00 505.00,375.00
             505.00,375.00 505.00,275.00 505.00,275.00
             505.00,275.00 505.00,252.00 505.00,252.00
             505.00,252.00 506.02,245.60 506.02,245.60
             506.02,245.60 514.00,244.00 514.00,244.00
             514.00,244.00 572.00,244.00 572.00,244.00
             572.00,244.00 572.00,375.00 572.00,375.00
             572.00,375.00 575.00,375.00 575.00,375.00
             575.00,375.00 575.00,287.00 575.00,287.00
             575.00,278.13 574.08,250.76 576.00,244.00
             576.00,244.00 602.00,250.21 602.00,250.21
             602.00,250.21 614.40,253.93 614.40,253.93
             614.40,253.93 616.00,262.00 616.00,262.00
             616.00,262.00 616.00,375.00 616.00,375.00
             616.00,375.00 646.00,375.00 646.00,375.00
             646.00,375.00 646.00,358.00 646.00,358.00
             646.00,358.00 647.21,341.42 647.21,341.42
             647.21,341.42 647.21,332.00 647.21,332.00
             647.21,332.00 647.21,322.17 647.21,322.17
             647.21,322.17 644.00,315.00 644.00,315.00
             644.00,315.00 648.00,314.00 648.00,314.00
             648.00,314.00 649.01,286.00 649.01,286.00
             649.01,286.00 649.98,269.00 649.98,269.00
             649.98,269.00 646.00,258.00 646.00,258.00
             646.00,258.00 650.00,257.00 650.00,257.00
             650.00,257.00 652.00,210.00 652.00,210.00
             652.00,210.00 652.00,196.00 652.00,196.00
             652.00,196.00 649.00,198.00 649.00,198.00
             649.00,198.00 648.00,193.00 648.00,193.00
             648.00,193.00 653.00,193.00 653.00,193.00
             656.26,179.14 654.62,186.77 653.00,174.00
             653.00,174.00 648.00,174.00 648.00,174.00
             648.00,174.00 648.00,171.00 648.00,171.00
             648.00,171.00 652.00,171.00 652.00,171.00
             653.39,163.75 658.52,160.00 665.00,157.00
             670.52,163.91 674.29,162.17 675.00,171.00
             675.00,171.00 680.00,171.00 680.00,171.00
             680.00,171.00 680.00,174.00 680.00,174.00
             680.00,174.00 675.00,174.00 675.00,174.00
             675.00,174.00 672.00,190.00 672.00,190.00
             672.00,190.00 675.00,193.00 675.00,193.00
             675.00,193.00 680.00,193.00 680.00,193.00
             679.11,196.88 678.96,197.32 675.00,198.00
             675.00,198.00 677.00,257.00 677.00,257.00
             677.00,257.00 681.00,257.00 681.00,257.00
             681.00,257.00 680.00,263.00 680.00,263.00
             680.00,263.00 677.00,261.00 677.00,261.00
             677.00,261.00 678.00,280.00 678.00,280.00
             678.00,280.00 679.00,294.00 679.00,294.00
             679.00,294.00 680.02,311.82 680.02,311.82
             680.02,311.82 683.00,315.00 683.00,315.00
             677.46,330.51 680.98,330.16 681.00,345.00
             681.00,345.00 682.00,375.00 682.00,375.00
             682.00,375.00 720.00,375.00 720.00,375.00
             720.00,375.00 743.00,374.00 743.00,374.00
             743.00,374.00 743.00,349.00 743.00,349.00
             743.00,349.00 744.00,335.00 744.00,335.00
             744.00,335.00 745.00,301.00 745.00,301.00
             745.00,301.00 742.00,302.00 742.00,302.00
             742.00,302.00 741.00,295.00 741.00,295.00
             741.00,295.00 744.98,292.69 744.98,292.69
             744.98,292.69 746.00,276.00 746.00,276.00
             746.00,276.00 747.00,261.00 747.00,261.00
             747.00,261.00 748.00,227.00 748.00,227.00
             744.39,225.63 744.26,224.53 743.00,221.00
             743.00,221.00 749.00,220.00 749.00,220.00
             749.00,220.00 750.00,180.00 750.00,180.00
             750.00,180.00 750.96,168.00 750.96,168.00
             750.96,168.00 750.96,153.00 750.96,153.00
             751.07,146.95 752.33,145.92 750.00,140.00
             750.00,140.00 747.00,143.00 747.00,143.00
             745.09,136.61 744.66,135.26 752.00,135.00
             752.00,135.00 755.00,132.00 755.00,132.00
             755.00,132.00 752.00,111.00 752.00,111.00
             747.83,110.85 746.48,111.21 745.00,107.00
             745.00,107.00 751.00,107.00 751.00,107.00
             752.21,93.73 757.61,98.07 765.00,88.00
             765.00,88.00 767.00,88.00 767.00,88.00
             774.80,98.05 780.30,94.51 781.00,107.00
             781.00,107.00 787.00,107.00 787.00,107.00
             785.52,111.21 784.17,110.85 780.00,111.00
             780.00,111.00 777.00,132.00 777.00,132.00
             777.00,132.00 780.00,135.00 780.00,135.00
             787.34,135.26 786.91,136.61 785.00,143.00
             785.00,143.00 781.00,140.00 781.00,140.00
             781.00,140.00 781.00,161.00 781.00,161.00
             781.00,161.00 782.04,176.00 782.04,176.00
             782.04,176.00 782.04,189.00 782.04,189.00
             782.04,189.00 783.00,200.00 783.00,200.00
             783.00,200.00 784.00,220.00 784.00,220.00
             789.60,220.97 789.18,223.08 786.00,227.00
             786.00,227.00 784.00,224.00 784.00,224.00
             784.00,224.00 785.00,257.00 785.00,257.00
             785.00,257.00 786.00,274.00 786.00,274.00
             786.00,274.00 787.00,295.00 787.00,295.00
             787.00,295.00 791.00,296.00 791.00,296.00
             791.00,296.00 787.27,305.09 787.27,305.09
             787.27,305.09 788.00,323.00 788.00,323.00
             788.00,323.00 789.00,356.00 789.00,356.00
             789.00,356.00 790.00,375.00 790.00,375.00
             792.36,375.08 795.17,374.81 796.40,377.31
             797.31,379.16 797.00,387.48 797.00,390.00
             797.00,390.00 797.00,421.00 797.00,421.00
             797.00,421.00 234.00,421.00 234.00,421.00
             234.00,421.00 103.00,421.00 103.00,421.00
             103.00,421.00 72.00,421.00 72.00,421.00
             70.01,421.00 66.19,421.23 64.60,419.98
             62.62,418.41 63.00,414.30 63.00,412.00
             63.00,412.00 63.00,382.00 63.00,382.00
             63.12,375.81 63.95,375.21 70.00,375.00
             70.00,375.00 70.99,364.01 70.99,364.01
             70.99,364.01 70.99,353.00 70.99,353.00
             70.99,353.00 72.08,338.00 72.08,338.00
             72.08,338.00 72.08,323.83 72.08,323.83
             72.08,323.83 73.00,313.00 73.00,313.00
             73.14,300.61 72.35,305.68 69.00,296.00
             69.00,296.00 74.00,295.00 74.00,295.00
             74.00,295.00 74.00,279.00 74.00,279.00
             74.00,279.00 74.96,267.00 74.96,267.00
             74.96,267.00 74.96,254.00 74.96,254.00
             74.96,254.00 76.00,238.00 76.00,238.00
             76.00,238.00 77.00,227.00 77.00,227.00
             77.00,227.00 73.00,227.00 73.00,227.00
             73.00,227.00 71.00,221.00 71.00,221.00
             71.00,221.00 77.00,220.00 77.00,220.00
             77.00,220.00 79.00,155.00 79.00,155.00
             79.03,148.40 80.79,146.15 78.00,140.00
             78.00,140.00 76.00,143.00 76.00,143.00
             72.45,136.92 72.76,135.26 80.00,135.00
             80.00,135.00 83.00,132.00 83.00,132.00
             83.00,112.99 81.18,121.54 80.00,111.00
             75.83,110.85 74.48,111.21 73.00,107.00
             73.00,107.00 79.00,107.00 79.00,107.00
             80.17,94.50 85.93,97.63 93.00,88.00 Z
           M 90.00,115.00
           C 84.42,119.76 86.00,125.18 86.00,132.00
             86.00,132.00 92.00,132.00 92.00,132.00
             92.00,125.08 92.77,121.56 90.00,115.00 Z
           M 99.00,115.00
           C 94.79,120.06 96.00,125.73 96.00,132.00
             96.00,132.00 102.00,132.00 102.00,132.00
             102.00,125.05 103.19,120.93 99.00,115.00 Z
           M 762.00,115.00
           C 756.42,119.76 758.00,125.18 758.00,132.00
             758.00,132.00 765.00,132.00 765.00,132.00
             765.00,124.82 765.90,121.41 762.00,115.00 Z
           M 772.00,115.00
           C 766.42,119.76 768.00,125.18 768.00,132.00
             768.00,132.00 774.00,132.00 774.00,132.00
             774.00,125.08 774.77,121.56 772.00,115.00 Z
           M 326.00,164.00
           C 326.00,164.00 328.00,164.00 328.00,164.00
             334.86,176.77 343.33,175.91 349.44,183.18
             353.29,187.76 353.95,193.29 354.00,199.00
             354.00,199.00 359.00,199.00 359.00,199.00
             359.00,199.00 359.00,204.00 359.00,204.00
             351.56,204.61 353.20,206.42 351.31,212.00
             351.31,212.00 348.69,218.00 348.69,218.00
             347.65,221.26 348.00,229.22 348.00,233.00
             348.00,233.00 355.00,233.00 355.00,233.00
             354.74,240.49 352.92,239.99 346.00,240.00
             346.00,240.00 288.00,240.00 288.00,240.00
             288.00,240.00 288.00,234.00 288.00,234.00
             288.00,234.00 285.00,240.00 285.00,240.00
             285.00,240.00 244.00,249.00 244.00,249.00
             244.00,249.00 244.00,226.00 244.00,226.00
             244.00,218.54 242.56,215.02 249.00,210.00
             249.00,210.00 252.08,215.00 252.08,215.00
             252.08,215.00 252.08,224.00 252.08,224.00
             252.08,224.00 252.08,241.00 252.08,241.00
             252.08,241.00 274.00,235.63 274.00,235.63
             274.00,235.63 282.98,231.70 282.98,231.70
             282.98,231.70 284.00,226.00 284.00,226.00
             284.00,226.00 285.02,204.04 285.02,204.04
             285.02,204.04 289.00,200.00 289.00,200.00
             289.00,200.00 292.40,205.00 292.40,205.00
             292.40,205.00 293.00,233.00 293.00,233.00
             293.00,233.00 307.00,233.00 307.00,233.00
             307.00,228.38 307.23,224.49 305.78,220.00
             303.05,211.55 301.04,215.30 301.00,204.00
             301.00,204.00 295.00,204.00 295.00,204.00
             295.00,204.00 295.00,199.00 295.00,199.00
             295.00,199.00 299.00,199.00 299.00,199.00
             299.70,193.69 300.16,188.42 303.56,184.04
             307.60,178.83 312.14,177.74 317.00,174.21
             321.33,171.07 323.09,168.31 326.00,164.00 Z
           M 533.00,164.00
           C 533.00,164.00 542.04,173.24 542.04,173.24
             550.78,180.05 560.13,180.31 561.00,199.00
             565.00,199.70 565.30,200.00 566.00,204.00
             566.00,204.00 559.00,204.00 559.00,204.00
             558.95,216.21 556.22,212.70 554.21,220.00
             553.80,222.50 554.00,230.01 554.21,233.00
             554.21,233.00 567.97,233.00 567.97,233.00
             567.97,233.00 567.97,214.00 567.97,214.00
             567.97,214.00 567.97,205.02 567.97,205.02
             567.97,205.02 572.00,200.00 572.00,200.00
             572.00,200.00 575.26,204.18 575.26,204.18
             575.26,204.18 576.00,226.00 576.00,226.00
             576.00,226.00 577.60,232.44 577.60,232.44
             577.60,232.44 587.00,235.79 587.00,235.79
             587.00,235.79 607.93,241.00 607.93,241.00
             607.93,241.00 607.93,216.04 607.93,216.04
             607.93,216.04 612.00,210.00 612.00,210.00
             618.10,215.84 616.01,217.74 616.00,226.00
             616.00,226.00 616.00,249.00 616.00,249.00
             616.00,249.00 589.00,242.87 589.00,242.87
             589.00,242.87 577.30,239.69 577.30,239.69
             577.30,239.69 572.00,234.00 572.00,234.00
             572.00,234.00 572.00,240.00 572.00,240.00
             572.00,240.00 514.00,240.00 514.00,240.00
             511.28,239.99 503.63,240.38 505.66,235.30
             506.71,232.65 510.69,233.03 513.00,233.00
             513.00,211.27 508.05,219.49 508.00,204.00
             508.00,204.00 501.00,204.00 501.00,204.00
             501.00,204.00 501.00,199.00 501.00,199.00
             501.00,199.00 506.00,199.00 506.00,199.00
             506.36,182.53 512.24,182.78 523.00,174.47
             527.14,171.27 529.74,167.97 533.00,164.00 Z
           M 194.00,178.00
           C 188.82,180.92 190.00,184.63 190.00,190.00
             190.00,190.00 195.00,190.00 195.00,190.00
             195.00,190.00 194.00,178.00 194.00,178.00 Z
           M 201.00,178.00
           C 201.00,178.00 199.00,178.00 199.00,178.00
             199.00,178.00 198.00,190.00 198.00,190.00
             198.00,190.00 202.00,190.00 202.00,190.00
             202.00,190.00 201.00,178.00 201.00,178.00 Z
           M 661.00,178.00
           C 661.00,178.00 659.00,178.00 659.00,178.00
             659.00,178.00 658.00,190.00 658.00,190.00
             658.00,190.00 663.00,190.00 663.00,190.00
             663.00,184.44 663.41,183.20 661.00,178.00 Z
           M 669.00,178.00
           C 663.82,180.92 665.00,184.63 665.00,190.00
             665.00,190.00 670.00,190.00 670.00,190.00
             670.00,190.00 669.00,178.00 669.00,178.00 Z
           M 318.00,211.00
           C 309.35,219.29 311.00,221.98 311.00,233.00
             311.00,233.00 324.00,233.00 324.00,233.00
             324.00,219.69 325.54,221.93 318.00,211.00 Z
           M 525.00,211.00
           C 516.35,219.29 518.00,221.98 518.00,233.00
             518.00,233.00 531.00,233.00 531.00,233.00
             531.00,219.69 532.54,221.93 525.00,211.00 Z
           M 337.00,212.00
           C 327.35,216.62 329.00,223.93 329.00,233.00
             329.00,233.00 342.00,233.00 342.00,233.00
             342.00,221.43 343.47,221.85 337.00,212.00 Z
           M 544.00,212.00
           C 534.35,216.62 536.00,223.93 536.00,233.00
             536.00,233.00 549.00,233.00 549.00,233.00
             549.00,221.43 550.47,221.85 544.00,212.00 Z
           M 479.00,234.00
           C 479.00,234.00 381.00,234.00 381.00,234.00
             381.00,234.00 381.00,375.00 381.00,375.00
             381.00,375.00 388.00,375.00 388.00,375.00
             388.00,375.00 388.00,314.00 388.00,314.00
             388.00,302.83 387.20,288.95 392.95,279.00
             396.92,272.13 404.05,266.86 411.00,263.26
             417.54,259.87 425.56,256.92 429.00,250.00
             429.00,250.00 431.00,250.00 431.00,250.00
             438.14,262.18 457.07,262.68 466.53,278.00
             473.34,289.02 472.00,300.66 472.00,313.00
             472.00,313.00 472.00,375.00 472.00,375.00
             472.00,375.00 479.00,375.00 479.00,375.00
             479.00,375.00 479.00,234.00 479.00,234.00 Z
           M 340.00,310.00
           C 340.00,310.00 340.00,282.00 340.00,282.00
             339.99,277.78 340.13,273.81 337.91,270.02
             335.92,266.61 325.95,259.17 322.00,259.25
             318.95,259.32 309.55,265.61 307.65,268.10
             304.66,272.01 304.06,277.25 304.00,282.00
             304.00,282.00 304.00,310.00 304.00,310.00
             304.00,310.00 316.00,310.00 316.00,310.00
             316.00,306.29 315.47,296.99 317.02,294.05
             319.29,289.76 324.13,288.38 326.83,293.14
             328.60,296.25 328.00,306.05 328.00,310.00
             328.00,310.00 340.00,310.00 340.00,310.00 Z
           M 275.00,310.00
           C 275.00,310.00 275.00,281.00 275.00,281.00
             274.99,276.53 275.00,272.16 272.95,268.04
             270.88,263.87 267.12,260.92 263.00,259.00
             263.00,259.00 255.11,270.00 255.11,270.00
             255.11,270.00 254.00,285.00 254.00,285.00
             254.00,285.00 254.00,310.00 254.00,310.00
             254.00,310.00 275.00,310.00 275.00,310.00 Z
           M 548.00,263.00
           C 543.31,262.30 540.94,259.00 537.00,259.64
             535.08,259.95 532.69,261.56 531.00,262.56
             527.68,264.52 525.20,265.68 522.99,269.04
             520.04,273.53 520.32,277.06 519.72,282.00
             519.72,282.00 519.00,310.00 519.00,310.00
             519.00,310.00 532.00,310.00 532.00,310.00
             532.00,306.19 531.41,296.15 533.17,293.21
             535.51,289.34 540.49,289.34 542.83,293.21
             544.59,296.15 544.00,306.19 544.00,310.00
             544.00,310.00 556.00,310.00 556.00,310.00
             556.00,310.00 556.00,283.00 556.00,283.00
             556.00,283.00 554.20,271.00 554.20,271.00
             554.20,271.00 548.00,263.00 548.00,263.00 Z
           M 597.00,259.00
           C 592.90,260.94 589.41,263.88 587.30,268.00
             585.31,271.90 585.02,276.71 585.00,281.00
             585.00,281.00 585.00,310.00 585.00,310.00
             585.00,310.00 607.00,310.00 607.00,310.00
             607.00,300.78 607.94,275.31 604.43,268.00
             602.80,264.61 599.49,261.87 597.00,259.00 Z
           M 440.00,312.00
           C 440.00,307.28 440.65,295.83 438.69,292.04
             435.21,285.34 425.05,285.30 421.45,292.04
             419.27,296.14 420.00,307.00 420.00,312.00
             420.00,312.00 440.00,312.00 440.00,312.00 Z
           M 265.00,324.00
           C 261.31,326.64 257.56,329.76 255.65,334.00
             254.10,337.44 254.02,341.30 254.00,345.00
             254.00,345.00 254.00,375.00 254.00,375.00
             254.00,375.00 275.00,375.00 275.00,375.00
             275.00,375.00 275.00,350.00 275.00,350.00
             275.00,344.63 275.46,339.03 273.20,334.00
             271.40,330.00 268.04,327.05 265.00,324.00 Z
           M 340.00,375.00
           C 340.00,375.00 340.00,348.00 340.00,348.00
             339.99,343.28 340.02,339.31 337.59,335.04
             335.44,331.28 332.62,329.78 329.00,327.72
             327.41,326.82 324.77,325.20 323.00,324.97
             319.39,324.49 317.66,327.36 313.00,328.00
             313.00,328.00 305.65,337.00 305.65,337.00
             305.65,337.00 304.00,349.00 304.00,349.00
             304.00,349.00 304.00,375.00 304.00,375.00
             304.00,375.00 316.00,375.00 316.00,375.00
             316.00,371.34 315.45,361.92 317.02,359.06
             319.81,353.97 325.41,354.83 327.40,360.02
             328.33,362.43 328.00,371.87 328.00,375.00
             328.00,375.00 340.00,375.00 340.00,375.00 Z
           M 556.00,375.00
           C 556.00,375.00 556.00,347.00 556.00,347.00
             555.95,336.73 554.04,332.85 545.00,327.72
             543.05,326.61 540.27,324.82 538.00,324.83
             534.98,324.84 525.76,330.80 523.80,333.21
             520.67,337.06 520.40,341.34 519.85,346.00
             519.85,346.00 519.00,375.00 519.00,375.00
             519.00,375.00 532.00,375.00 532.00,375.00
             532.00,371.34 531.45,361.92 533.02,359.06
             535.81,353.97 541.41,354.83 543.40,360.02
             544.33,362.43 544.00,371.87 544.00,375.00
             544.00,375.00 556.00,375.00 556.00,375.00 Z
           M 596.00,324.00
           C 592.18,326.75 588.94,329.61 586.97,334.00
             585.19,337.97 585.02,341.75 585.00,346.00
             585.00,346.00 585.00,375.00 585.00,375.00
             585.00,375.00 607.00,375.00 607.00,375.00
             607.00,365.64 608.03,341.55 604.43,334.00
             602.67,330.31 598.89,326.89 596.00,324.00 Z
           M 440.00,375.00
           C 440.00,375.00 440.00,353.00 440.00,353.00
             439.98,349.80 440.13,346.85 438.26,344.05
             434.16,337.92 425.89,337.77 421.85,344.05
             419.77,347.29 420.01,351.32 420.00,355.00
             420.00,355.00 420.00,375.00 420.00,375.00
             420.00,375.00 440.00,375.00 440.00,375.00 Z" />
</svg>
