<?xml version="1.0" encoding="UTF-8" standalone="no"?>
<!DOCTYPE svg PUBLIC "-//W3C//DTD SVG 20010904//EN"
              "http://www.w3.org/TR/2001/REC-SVG-20010904/DTD/svg10.dtd">

<svg xmlns="http://www.w3.org/2000/svg"
     width="0.162in" height="0.234in"
     viewBox="0 0 162 234">
  <path id="Selection"
        fill="rgb(19, 37, 86)" stroke="rgb(19, 37, 86)" stroke-width="1"
        d="M 51.00,15.00
           C 62.44,9.45 78.16,10.09 87.53,19.47
             91.75,23.68 92.93,27.70 95.00,33.00
             97.99,26.69 101.92,24.64 108.00,21.78
             121.88,15.25 134.77,15.66 146.83,25.90
             153.51,31.57 155.65,38.97 158.00,47.00
             158.00,47.00 144.37,41.09 144.37,41.09
             144.37,41.09 140.00,37.00 140.00,37.00
             140.00,37.00 139.00,42.00 139.00,42.00
             139.00,42.00 137.00,38.00 137.00,38.00
             137.00,38.00 135.00,42.00 135.00,42.00
             135.00,42.00 131.00,38.00 131.00,38.00
             131.00,38.00 131.00,42.00 131.00,42.00
             131.00,42.00 122.00,44.00 122.00,44.00
             125.59,45.54 127.78,46.93 130.21,50.09
             136.77,58.60 139.43,78.96 133.00,88.00
             133.00,88.00 130.00,74.00 130.00,74.00
             130.00,74.00 128.00,78.00 128.00,78.00
             124.42,68.84 118.83,61.74 110.00,57.00
             115.51,63.43 119.21,68.34 120.00,77.00
             120.00,77.00 115.00,75.00 115.00,75.00
             116.80,76.86 118.78,78.68 119.99,81.00
             124.24,89.12 118.87,101.79 117.00,110.00
             117.00,110.00 103.85,95.00 103.85,95.00
             103.85,95.00 102.00,86.00 102.00,86.00
             102.00,86.00 101.00,91.00 101.00,91.00
             101.00,91.00 95.00,86.00 95.00,86.00
             95.60,99.13 98.64,112.22 101.41,125.00
             101.41,125.00 103.68,134.00 103.68,134.00
             105.83,146.29 105.57,160.53 105.68,173.00
             105.68,173.00 105.68,186.00 105.68,186.00
             105.97,188.29 106.99,191.91 106.60,193.98
             105.28,200.98 92.62,200.12 90.03,195.77
             88.45,193.13 90.99,178.66 90.96,174.00
             90.96,174.00 90.96,164.00 90.96,164.00
             90.96,164.00 90.29,153.00 90.29,153.00
             90.18,149.40 90.88,147.80 90.29,144.00
             90.29,144.00 88.29,129.00 88.29,129.00
             88.29,129.00 86.74,116.00 86.74,116.00
             86.74,116.00 84.15,103.00 84.15,103.00
             84.15,103.00 83.00,91.00 83.00,91.00
             82.94,85.33 83.56,79.50 82.00,74.00
             82.00,74.00 82.00,80.00 82.00,80.00
             82.00,80.00 81.00,80.00 81.00,80.00
             81.00,80.00 79.00,78.00 79.00,78.00
             79.95,85.27 80.32,84.83 78.00,92.00
             78.00,92.00 75.00,91.00 75.00,91.00
             75.00,91.00 76.00,96.00 76.00,96.00
             71.16,101.19 71.84,106.53 73.00,113.00
             64.19,109.23 58.87,99.99 56.49,91.00
             55.41,86.93 56.33,82.45 54.00,79.00
             58.69,62.81 57.36,63.65 70.00,51.00
             61.76,51.02 61.35,51.23 54.00,55.00
             54.00,55.00 53.00,50.00 53.00,50.00
             53.00,50.00 51.00,57.00 51.00,57.00
             51.00,57.00 49.00,55.00 49.00,55.00
             47.08,61.17 44.32,60.30 40.39,65.04
             36.77,69.40 35.75,73.86 34.00,79.00
             21.47,68.96 28.19,50.97 39.00,42.39
             50.46,33.30 63.87,33.70 77.00,38.00
             72.39,29.45 68.47,30.75 69.00,23.90
             69.00,23.90 64.00,23.90 64.00,23.90
             64.00,23.90 51.00,15.00 51.00,15.00 Z
           M 72.00,28.00
           C 72.00,28.00 71.00,28.00 71.00,28.00
             71.00,28.00 72.00,29.00 72.00,29.00
             72.00,29.00 72.00,28.00 72.00,28.00 Z
           M 78.00,38.00
           C 78.00,38.00 77.00,38.00 77.00,38.00
             77.00,38.00 78.00,39.00 78.00,39.00
             78.00,39.00 78.00,38.00 78.00,38.00 Z
           M 58.00,76.00
           C 58.00,76.00 57.00,76.00 57.00,76.00
             57.00,76.00 58.00,77.00 58.00,77.00
             58.00,77.00 58.00,76.00 58.00,76.00 Z
           M 79.00,76.00
           C 79.00,76.00 78.00,76.00 78.00,76.00
             78.00,76.00 79.00,77.00 79.00,77.00
             79.00,77.00 79.00,76.00 79.00,76.00 Z
           M 75.00,90.00
           C 75.00,90.00 74.00,90.00 74.00,90.00
             74.00,90.00 75.00,91.00 75.00,91.00
             75.00,91.00 75.00,90.00 75.00,90.00 Z" />
</svg>
